<svg width="2000" height="2000" viewBox="0 0 2000 2000" fill="none" xmlns="http://www.w3.org/2000/svg">
<rect x="1.5" y="1.5" width="1997" height="1997" fill="white"/>
<rect x="1.5" y="1.5" width="1997" height="1997" stroke="black" stroke-width="3"/>
<rect x="130.5" y="347.5" width="588" height="1300" fill="#E8E9D4"/>
<rect x="130.5" y="347.5" width="588" height="1300" stroke="black" stroke-width="3"/>
<circle cx="594" cy="576" r="24" fill="#FFD700" stroke="black" stroke-width="2"/>
<path d="M585.403 543L590.227 533.455V533.375H584.608V531.364H592.773V533.403L587.943 543H585.403ZM594.459 543V541.227L598.601 537.392C598.953 537.051 599.249 536.744 599.487 536.472C599.73 536.199 599.913 535.932 600.038 535.67C600.163 535.405 600.226 535.119 600.226 534.812C600.226 534.472 600.148 534.178 599.993 533.932C599.838 533.682 599.625 533.491 599.357 533.358C599.088 533.222 598.783 533.153 598.442 533.153C598.086 533.153 597.775 533.225 597.51 533.369C597.245 533.513 597.04 533.72 596.896 533.989C596.752 534.258 596.68 534.578 596.68 534.949H594.345C594.345 534.187 594.518 533.527 594.862 532.966C595.207 532.405 595.69 531.972 596.311 531.665C596.932 531.358 597.648 531.205 598.459 531.205C599.292 531.205 600.018 531.352 600.635 531.648C601.256 531.939 601.739 532.345 602.084 532.864C602.429 533.383 602.601 533.977 602.601 534.648C602.601 535.087 602.514 535.521 602.339 535.949C602.169 536.377 601.864 536.852 601.425 537.375C600.985 537.894 600.366 538.517 599.567 539.244L597.868 540.909V540.989H602.754V543H594.459Z" fill="black"/>
<circle cx="677" cy="576" r="24" fill="#FFD700" stroke="black" stroke-width="2"/>
<path d="M668.403 543L673.227 533.455V533.375H667.608V531.364H675.773V533.403L670.943 543H668.403ZM681.494 543.159C680.646 543.159 679.89 543.013 679.227 542.722C678.568 542.426 678.047 542.021 677.665 541.506C677.286 540.987 677.091 540.388 677.08 539.71H679.557C679.572 539.994 679.665 540.244 679.835 540.46C680.009 540.672 680.241 540.837 680.528 540.955C680.816 541.072 681.14 541.131 681.5 541.131C681.875 541.131 682.206 541.064 682.494 540.932C682.782 540.799 683.008 540.616 683.17 540.381C683.333 540.146 683.415 539.875 683.415 539.568C683.415 539.258 683.328 538.983 683.153 538.744C682.983 538.502 682.737 538.312 682.415 538.176C682.097 538.04 681.718 537.972 681.278 537.972H680.193V536.165H681.278C681.65 536.165 681.977 536.1 682.261 535.972C682.549 535.843 682.773 535.665 682.932 535.438C683.091 535.206 683.17 534.938 683.17 534.631C683.17 534.339 683.1 534.083 682.96 533.864C682.824 533.64 682.631 533.466 682.381 533.341C682.134 533.216 681.847 533.153 681.517 533.153C681.184 533.153 680.879 533.214 680.602 533.335C680.326 533.453 680.104 533.621 679.938 533.841C679.771 534.061 679.682 534.318 679.67 534.614H677.312C677.324 533.943 677.515 533.352 677.886 532.841C678.258 532.33 678.758 531.93 679.386 531.642C680.019 531.35 680.733 531.205 681.528 531.205C682.331 531.205 683.034 531.35 683.636 531.642C684.239 531.934 684.706 532.328 685.04 532.824C685.377 533.316 685.544 533.869 685.54 534.483C685.544 535.134 685.341 535.678 684.932 536.114C684.527 536.549 683.998 536.826 683.347 536.943V537.034C684.203 537.144 684.854 537.441 685.301 537.926C685.752 538.407 685.975 539.009 685.972 539.733C685.975 540.396 685.784 540.985 685.398 541.5C685.015 542.015 684.487 542.42 683.812 542.716C683.138 543.011 682.366 543.159 681.494 543.159Z" fill="black"/>
<circle cx="594" cy="661" r="24" fill="#FFD700" stroke="black" stroke-width="2"/>
<path d="M585.403 628L590.227 618.455V618.375H584.608V616.364H592.773V618.403L587.943 628H585.403ZM593.345 625.955V624.017L598.203 616.364H599.874V619.045H598.885L595.822 623.892V623.983H602.726V625.955H593.345ZM598.93 628V625.364L598.976 624.506V616.364H601.283V628H598.93Z" fill="black"/>
<circle cx="677" cy="661" r="24" fill="#FFD700" stroke="black" stroke-width="2"/>
<path d="M668.403 628L673.227 618.455V618.375H667.608V616.364H675.773V618.403L670.943 628H668.403ZM681.553 628.159C680.75 628.159 680.034 628.011 679.405 627.716C678.78 627.42 678.284 627.013 677.916 626.494C677.549 625.975 677.357 625.381 677.342 624.71H679.729C679.755 625.161 679.945 625.527 680.297 625.807C680.649 626.087 681.068 626.227 681.553 626.227C681.939 626.227 682.28 626.142 682.575 625.972C682.875 625.797 683.107 625.557 683.274 625.25C683.445 624.939 683.53 624.583 683.53 624.182C683.53 623.773 683.443 623.413 683.268 623.102C683.098 622.792 682.861 622.549 682.558 622.375C682.255 622.201 681.909 622.112 681.518 622.108C681.178 622.108 680.846 622.178 680.524 622.318C680.206 622.458 679.958 622.65 679.78 622.892L677.592 622.5L678.143 616.364H685.257V618.375H680.172L679.871 621.29H679.939C680.143 621.002 680.452 620.763 680.865 620.574C681.278 620.384 681.74 620.29 682.251 620.29C682.952 620.29 683.577 620.455 684.126 620.784C684.676 621.114 685.109 621.566 685.428 622.142C685.746 622.714 685.903 623.373 685.899 624.119C685.903 624.903 685.721 625.6 685.354 626.21C684.99 626.816 684.481 627.294 683.825 627.642C683.174 627.987 682.416 628.159 681.553 628.159Z" fill="black"/>
<circle cx="594" cy="746" r="24" fill="#FFD700" stroke="black" stroke-width="2"/>
<path d="M585.403 713L590.227 703.455V703.375H584.608V701.364H592.773V703.403L587.943 713H585.403ZM598.675 713.159C598.076 713.155 597.499 713.055 596.942 712.858C596.389 712.661 595.893 712.341 595.453 711.898C595.014 711.455 594.665 710.867 594.408 710.136C594.154 709.405 594.027 708.508 594.027 707.443C594.031 706.466 594.143 705.593 594.362 704.824C594.586 704.051 594.904 703.396 595.317 702.858C595.733 702.32 596.232 701.911 596.811 701.631C597.391 701.347 598.04 701.205 598.76 701.205C599.536 701.205 600.222 701.356 600.817 701.659C601.411 701.958 601.889 702.366 602.249 702.881C602.612 703.396 602.832 703.973 602.908 704.614H600.482C600.387 704.208 600.188 703.89 599.885 703.659C599.582 703.428 599.207 703.312 598.76 703.312C598.002 703.312 597.427 703.642 597.033 704.301C596.643 704.96 596.444 705.856 596.436 706.989H596.516C596.69 706.644 596.925 706.35 597.22 706.108C597.519 705.862 597.858 705.674 598.237 705.545C598.62 705.413 599.023 705.347 599.447 705.347C600.137 705.347 600.75 705.509 601.288 705.835C601.826 706.157 602.25 706.6 602.561 707.165C602.872 707.729 603.027 708.375 603.027 709.102C603.027 709.89 602.843 710.591 602.476 711.205C602.112 711.818 601.603 712.299 600.947 712.648C600.296 712.992 599.538 713.163 598.675 713.159ZM598.663 711.227C599.042 711.227 599.381 711.136 599.68 710.955C599.98 710.773 600.214 710.527 600.385 710.216C600.555 709.905 600.641 709.557 600.641 709.17C600.641 708.784 600.555 708.437 600.385 708.131C600.218 707.824 599.987 707.58 599.692 707.398C599.396 707.216 599.059 707.125 598.68 707.125C598.396 707.125 598.133 707.178 597.891 707.284C597.652 707.39 597.442 707.538 597.26 707.727C597.082 707.917 596.942 708.136 596.839 708.386C596.737 708.633 596.686 708.896 596.686 709.176C596.686 709.551 596.771 709.894 596.942 710.205C597.116 710.515 597.351 710.763 597.646 710.949C597.946 711.134 598.285 711.227 598.663 711.227Z" fill="black"/>
<circle cx="677" cy="746" r="24" fill="#FFD700" stroke="black" stroke-width="2"/>
<path d="M668.403 713L673.227 703.455V703.375H667.608V701.364H675.773V703.403L670.943 713H668.403ZM678.232 713L683.055 703.455V703.375H677.436V701.364H685.601V703.403L680.771 713H678.232Z" fill="black"/>
<circle cx="594" cy="831" r="24" fill="#FFD700" stroke="black" stroke-width="2"/>
<path d="M586.403 798L591.227 788.455V788.375H585.608V786.364H593.773V788.403L588.943 798H586.403ZM599.565 798.159C598.69 798.159 597.912 798.017 597.23 797.733C596.552 797.445 596.02 797.053 595.634 796.557C595.247 796.061 595.054 795.498 595.054 794.869C595.054 794.384 595.164 793.939 595.384 793.534C595.607 793.125 595.91 792.786 596.293 792.517C596.675 792.244 597.103 792.07 597.577 791.994V791.915C596.955 791.79 596.452 791.489 596.065 791.011C595.679 790.53 595.486 789.972 595.486 789.335C595.486 788.733 595.662 788.197 596.014 787.727C596.366 787.254 596.849 786.883 597.463 786.614C598.08 786.341 598.781 786.205 599.565 786.205C600.349 786.205 601.048 786.341 601.662 786.614C602.279 786.886 602.764 787.259 603.116 787.733C603.469 788.203 603.647 788.737 603.651 789.335C603.647 789.975 603.45 790.534 603.06 791.011C602.67 791.489 602.17 791.79 601.56 791.915V791.994C602.026 792.07 602.448 792.244 602.827 792.517C603.209 792.786 603.512 793.125 603.736 793.534C603.963 793.939 604.079 794.384 604.082 794.869C604.079 795.498 603.884 796.061 603.497 796.557C603.111 797.053 602.577 797.445 601.895 797.733C601.217 798.017 600.44 798.159 599.565 798.159ZM599.565 796.352C599.955 796.352 600.296 796.282 600.588 796.142C600.88 795.998 601.107 795.801 601.27 795.551C601.437 795.297 601.52 795.006 601.52 794.676C601.52 794.339 601.435 794.042 601.264 793.784C601.094 793.523 600.863 793.318 600.571 793.17C600.279 793.019 599.944 792.943 599.565 792.943C599.19 792.943 598.855 793.019 598.56 793.17C598.264 793.318 598.031 793.523 597.861 793.784C597.694 794.042 597.611 794.339 597.611 794.676C597.611 795.006 597.692 795.297 597.855 795.551C598.018 795.801 598.247 795.998 598.543 796.142C598.838 796.282 599.179 796.352 599.565 796.352ZM599.565 791.153C599.891 791.153 600.181 791.087 600.435 790.955C600.688 790.822 600.887 790.638 601.031 790.403C601.175 790.169 601.247 789.898 601.247 789.591C601.247 789.288 601.175 789.023 601.031 788.795C600.887 788.564 600.69 788.384 600.44 788.256C600.19 788.123 599.899 788.057 599.565 788.057C599.236 788.057 598.944 788.123 598.69 788.256C598.437 788.384 598.238 788.564 598.094 788.795C597.954 789.023 597.884 789.288 597.884 789.591C597.884 789.898 597.955 790.169 598.099 790.403C598.243 790.638 598.442 790.822 598.696 790.955C598.95 791.087 599.24 791.153 599.565 791.153Z" fill="black"/>
<circle cx="677" cy="831" r="24" fill="#FFD700" stroke="black" stroke-width="2"/>
<path d="M668.403 798L673.227 788.455V788.375H667.608V786.364H675.773V788.403L670.943 798H668.403ZM681.513 786.205C682.111 786.205 682.687 786.305 683.24 786.506C683.797 786.706 684.293 787.027 684.729 787.466C685.168 787.905 685.515 788.489 685.768 789.216C686.026 789.939 686.157 790.828 686.161 791.881C686.161 792.869 686.049 793.752 685.825 794.528C685.606 795.301 685.289 795.958 684.876 796.5C684.464 797.042 683.965 797.455 683.382 797.739C682.799 798.019 682.147 798.159 681.428 798.159C680.651 798.159 679.965 798.009 679.371 797.71C678.776 797.407 678.297 796.996 677.933 796.477C677.573 795.955 677.356 795.367 677.28 794.716H679.706C679.801 795.14 680 795.47 680.303 795.705C680.606 795.936 680.981 796.051 681.428 796.051C682.185 796.051 682.761 795.722 683.155 795.062C683.549 794.4 683.748 793.492 683.751 792.341H683.672C683.498 792.682 683.263 792.975 682.967 793.222C682.672 793.464 682.333 793.652 681.95 793.784C681.571 793.917 681.168 793.983 680.74 793.983C680.054 793.983 679.443 793.822 678.905 793.5C678.367 793.178 677.943 792.735 677.632 792.17C677.321 791.606 677.166 790.962 677.166 790.239C677.162 789.458 677.342 788.763 677.706 788.153C678.07 787.544 678.577 787.066 679.229 786.722C679.884 786.373 680.645 786.201 681.513 786.205ZM681.53 788.136C681.147 788.136 680.806 788.227 680.507 788.409C680.212 788.591 679.977 788.835 679.803 789.142C679.632 789.449 679.549 789.792 679.553 790.17C679.553 790.553 679.636 790.898 679.803 791.205C679.973 791.508 680.204 791.75 680.496 791.932C680.791 792.11 681.128 792.199 681.507 792.199C681.791 792.199 682.054 792.146 682.297 792.04C682.539 791.934 682.75 791.788 682.928 791.602C683.109 791.413 683.251 791.195 683.354 790.949C683.456 790.703 683.507 790.441 683.507 790.165C683.503 789.797 683.416 789.46 683.246 789.153C683.075 788.847 682.84 788.6 682.541 788.415C682.242 788.229 681.905 788.136 681.53 788.136Z" fill="black"/>
<circle cx="594" cy="916" r="24" fill="#FFD700" stroke="black" stroke-width="2"/>
<path d="M588.284 883.159C587.409 883.159 586.631 883.017 585.949 882.733C585.271 882.445 584.739 882.053 584.352 881.557C583.966 881.061 583.773 880.498 583.773 879.869C583.773 879.384 583.883 878.939 584.102 878.534C584.326 878.125 584.629 877.786 585.011 877.517C585.394 877.244 585.822 877.07 586.295 876.994V876.915C585.674 876.79 585.17 876.489 584.784 876.011C584.398 875.53 584.205 874.972 584.205 874.335C584.205 873.733 584.381 873.197 584.733 872.727C585.085 872.254 585.568 871.883 586.182 871.614C586.799 871.341 587.5 871.205 588.284 871.205C589.068 871.205 589.767 871.341 590.381 871.614C590.998 871.886 591.483 872.259 591.835 872.733C592.188 873.203 592.366 873.737 592.369 874.335C592.366 874.975 592.169 875.534 591.778 876.011C591.388 876.489 590.888 876.79 590.278 876.915V876.994C590.744 877.07 591.167 877.244 591.545 877.517C591.928 877.786 592.231 878.125 592.455 878.534C592.682 878.939 592.797 879.384 592.801 879.869C592.797 880.498 592.602 881.061 592.216 881.557C591.83 882.053 591.295 882.445 590.614 882.733C589.936 883.017 589.159 883.159 588.284 883.159ZM588.284 881.352C588.674 881.352 589.015 881.282 589.307 881.142C589.598 880.998 589.826 880.801 589.989 880.551C590.155 880.297 590.239 880.006 590.239 879.676C590.239 879.339 590.153 879.042 589.983 878.784C589.813 878.523 589.581 878.318 589.29 878.17C588.998 878.019 588.663 877.943 588.284 877.943C587.909 877.943 587.574 878.019 587.278 878.17C586.983 878.318 586.75 878.523 586.58 878.784C586.413 879.042 586.33 879.339 586.33 879.676C586.33 880.006 586.411 880.297 586.574 880.551C586.737 880.801 586.966 880.998 587.261 881.142C587.557 881.282 587.898 881.352 588.284 881.352ZM588.284 876.153C588.61 876.153 588.9 876.087 589.153 875.955C589.407 875.822 589.606 875.638 589.75 875.403C589.894 875.169 589.966 874.898 589.966 874.591C589.966 874.288 589.894 874.023 589.75 873.795C589.606 873.564 589.409 873.384 589.159 873.256C588.909 873.123 588.617 873.057 588.284 873.057C587.955 873.057 587.663 873.123 587.409 873.256C587.155 873.384 586.956 873.564 586.812 873.795C586.672 874.023 586.602 874.288 586.602 874.591C586.602 874.898 586.674 875.169 586.818 875.403C586.962 875.638 587.161 875.822 587.415 875.955C587.669 876.087 587.958 876.153 588.284 876.153ZM599.084 883.256C598.107 883.252 597.266 883.011 596.561 882.534C595.86 882.057 595.321 881.366 594.942 880.46C594.567 879.555 594.381 878.466 594.385 877.193C594.385 875.924 594.572 874.843 594.947 873.949C595.326 873.055 595.866 872.375 596.567 871.909C597.271 871.439 598.11 871.205 599.084 871.205C600.057 871.205 600.894 871.439 601.595 871.909C602.3 872.379 602.841 873.061 603.22 873.955C603.599 874.845 603.786 875.924 603.783 877.193C603.783 878.47 603.593 879.561 603.214 880.466C602.839 881.371 602.302 882.062 601.601 882.54C600.9 883.017 600.061 883.256 599.084 883.256ZM599.084 881.216C599.75 881.216 600.283 880.881 600.68 880.21C601.078 879.54 601.275 878.534 601.271 877.193C601.271 876.311 601.18 875.576 600.999 874.989C600.821 874.402 600.567 873.96 600.237 873.665C599.911 873.369 599.527 873.222 599.084 873.222C598.421 873.222 597.891 873.553 597.493 874.216C597.095 874.879 596.894 875.871 596.891 877.193C596.891 878.087 596.98 878.833 597.158 879.432C597.339 880.027 597.595 880.473 597.925 880.773C598.254 881.068 598.641 881.216 599.084 881.216Z" fill="black"/>
<circle cx="677" cy="916" r="24" fill="#FFD700" stroke="black" stroke-width="2"/>
<path d="M672.284 883.159C671.409 883.159 670.631 883.017 669.949 882.733C669.271 882.445 668.739 882.053 668.352 881.557C667.966 881.061 667.773 880.498 667.773 879.869C667.773 879.384 667.883 878.939 668.102 878.534C668.326 878.125 668.629 877.786 669.011 877.517C669.394 877.244 669.822 877.07 670.295 876.994V876.915C669.674 876.79 669.17 876.489 668.784 876.011C668.398 875.53 668.205 874.972 668.205 874.335C668.205 873.733 668.381 873.197 668.733 872.727C669.085 872.254 669.568 871.883 670.182 871.614C670.799 871.341 671.5 871.205 672.284 871.205C673.068 871.205 673.767 871.341 674.381 871.614C674.998 871.886 675.483 872.259 675.835 872.733C676.188 873.203 676.366 873.737 676.369 874.335C676.366 874.975 676.169 875.534 675.778 876.011C675.388 876.489 674.888 876.79 674.278 876.915V876.994C674.744 877.07 675.167 877.244 675.545 877.517C675.928 877.786 676.231 878.125 676.455 878.534C676.682 878.939 676.797 879.384 676.801 879.869C676.797 880.498 676.602 881.061 676.216 881.557C675.83 882.053 675.295 882.445 674.614 882.733C673.936 883.017 673.159 883.159 672.284 883.159ZM672.284 881.352C672.674 881.352 673.015 881.282 673.307 881.142C673.598 880.998 673.826 880.801 673.989 880.551C674.155 880.297 674.239 880.006 674.239 879.676C674.239 879.339 674.153 879.042 673.983 878.784C673.813 878.523 673.581 878.318 673.29 878.17C672.998 878.019 672.663 877.943 672.284 877.943C671.909 877.943 671.574 878.019 671.278 878.17C670.983 878.318 670.75 878.523 670.58 878.784C670.413 879.042 670.33 879.339 670.33 879.676C670.33 880.006 670.411 880.297 670.574 880.551C670.737 880.801 670.966 880.998 671.261 881.142C671.557 881.282 671.898 881.352 672.284 881.352ZM672.284 876.153C672.61 876.153 672.9 876.087 673.153 875.955C673.407 875.822 673.606 875.638 673.75 875.403C673.894 875.169 673.966 874.898 673.966 874.591C673.966 874.288 673.894 874.023 673.75 873.795C673.606 873.564 673.409 873.384 673.159 873.256C672.909 873.123 672.617 873.057 672.284 873.057C671.955 873.057 671.663 873.123 671.409 873.256C671.155 873.384 670.956 873.564 670.812 873.795C670.672 874.023 670.602 874.288 670.602 874.591C670.602 874.898 670.674 875.169 670.818 875.403C670.962 875.638 671.161 875.822 671.415 875.955C671.669 876.087 671.958 876.153 672.284 876.153ZM683.584 871.364V883H681.124V873.699H681.055L678.391 875.369V873.188L681.271 871.364H683.584Z" fill="black"/>
<circle cx="594" cy="1000" r="24" fill="#FFD700" stroke="black" stroke-width="2"/>
<path d="M588.284 967.159C587.409 967.159 586.631 967.017 585.949 966.733C585.271 966.445 584.739 966.053 584.352 965.557C583.966 965.061 583.773 964.498 583.773 963.869C583.773 963.384 583.883 962.939 584.102 962.534C584.326 962.125 584.629 961.786 585.011 961.517C585.394 961.244 585.822 961.07 586.295 960.994V960.915C585.674 960.79 585.17 960.489 584.784 960.011C584.398 959.53 584.205 958.972 584.205 958.335C584.205 957.733 584.381 957.197 584.733 956.727C585.085 956.254 585.568 955.883 586.182 955.614C586.799 955.341 587.5 955.205 588.284 955.205C589.068 955.205 589.767 955.341 590.381 955.614C590.998 955.886 591.483 956.259 591.835 956.733C592.188 957.203 592.366 957.737 592.369 958.335C592.366 958.975 592.169 959.534 591.778 960.011C591.388 960.489 590.888 960.79 590.278 960.915V960.994C590.744 961.07 591.167 961.244 591.545 961.517C591.928 961.786 592.231 962.125 592.455 962.534C592.682 962.939 592.797 963.384 592.801 963.869C592.797 964.498 592.602 965.061 592.216 965.557C591.83 966.053 591.295 966.445 590.614 966.733C589.936 967.017 589.159 967.159 588.284 967.159ZM588.284 965.352C588.674 965.352 589.015 965.282 589.307 965.142C589.598 964.998 589.826 964.801 589.989 964.551C590.155 964.297 590.239 964.006 590.239 963.676C590.239 963.339 590.153 963.042 589.983 962.784C589.813 962.523 589.581 962.318 589.29 962.17C588.998 962.019 588.663 961.943 588.284 961.943C587.909 961.943 587.574 962.019 587.278 962.17C586.983 962.318 586.75 962.523 586.58 962.784C586.413 963.042 586.33 963.339 586.33 963.676C586.33 964.006 586.411 964.297 586.574 964.551C586.737 964.801 586.966 964.998 587.261 965.142C587.557 965.282 587.898 965.352 588.284 965.352ZM588.284 960.153C588.61 960.153 588.9 960.087 589.153 959.955C589.407 959.822 589.606 959.638 589.75 959.403C589.894 959.169 589.966 958.898 589.966 958.591C589.966 958.288 589.894 958.023 589.75 957.795C589.606 957.564 589.409 957.384 589.159 957.256C588.909 957.123 588.617 957.057 588.284 957.057C587.955 957.057 587.663 957.123 587.409 957.256C587.155 957.384 586.956 957.564 586.812 957.795C586.672 958.023 586.602 958.288 586.602 958.591C586.602 958.898 586.674 959.169 586.818 959.403C586.962 959.638 587.161 959.822 587.415 959.955C587.669 960.087 587.958 960.153 588.284 960.153ZM594.521 967V965.227L598.663 961.392C599.016 961.051 599.311 960.744 599.55 960.472C599.792 960.199 599.976 959.932 600.101 959.67C600.226 959.405 600.288 959.119 600.288 958.812C600.288 958.472 600.211 958.178 600.055 957.932C599.9 957.682 599.688 957.491 599.419 957.358C599.15 957.222 598.845 957.153 598.504 957.153C598.148 957.153 597.838 957.225 597.572 957.369C597.307 957.513 597.103 957.72 596.959 957.989C596.815 958.258 596.743 958.578 596.743 958.949H594.408C594.408 958.187 594.58 957.527 594.925 956.966C595.269 956.405 595.752 955.972 596.374 955.665C596.995 955.358 597.711 955.205 598.521 955.205C599.355 955.205 600.08 955.352 600.697 955.648C601.319 955.939 601.802 956.345 602.146 956.864C602.491 957.383 602.663 957.977 602.663 958.648C602.663 959.087 602.576 959.521 602.402 959.949C602.232 960.377 601.927 960.852 601.487 961.375C601.048 961.894 600.429 962.517 599.629 963.244L597.93 964.909V964.989H602.817V967H594.521Z" fill="black"/>
<circle cx="677" cy="1000" r="24" fill="#FFD700" stroke="black" stroke-width="2"/>
<path d="M673.284 967.159C672.409 967.159 671.631 967.017 670.949 966.733C670.271 966.445 669.739 966.053 669.352 965.557C668.966 965.061 668.773 964.498 668.773 963.869C668.773 963.384 668.883 962.939 669.102 962.534C669.326 962.125 669.629 961.786 670.011 961.517C670.394 961.244 670.822 961.07 671.295 960.994V960.915C670.674 960.79 670.17 960.489 669.784 960.011C669.398 959.53 669.205 958.972 669.205 958.335C669.205 957.733 669.381 957.197 669.733 956.727C670.085 956.254 670.568 955.883 671.182 955.614C671.799 955.341 672.5 955.205 673.284 955.205C674.068 955.205 674.767 955.341 675.381 955.614C675.998 955.886 676.483 956.259 676.835 956.733C677.188 957.203 677.366 957.737 677.369 958.335C677.366 958.975 677.169 959.534 676.778 960.011C676.388 960.489 675.888 960.79 675.278 960.915V960.994C675.744 961.07 676.167 961.244 676.545 961.517C676.928 961.786 677.231 962.125 677.455 962.534C677.682 962.939 677.797 963.384 677.801 963.869C677.797 964.498 677.602 965.061 677.216 965.557C676.83 966.053 676.295 966.445 675.614 966.733C674.936 967.017 674.159 967.159 673.284 967.159ZM673.284 965.352C673.674 965.352 674.015 965.282 674.307 965.142C674.598 964.998 674.826 964.801 674.989 964.551C675.155 964.297 675.239 964.006 675.239 963.676C675.239 963.339 675.153 963.042 674.983 962.784C674.813 962.523 674.581 962.318 674.29 962.17C673.998 962.019 673.663 961.943 673.284 961.943C672.909 961.943 672.574 962.019 672.278 962.17C671.983 962.318 671.75 962.523 671.58 962.784C671.413 963.042 671.33 963.339 671.33 963.676C671.33 964.006 671.411 964.297 671.574 964.551C671.737 964.801 671.966 964.998 672.261 965.142C672.557 965.282 672.898 965.352 673.284 965.352ZM673.284 960.153C673.61 960.153 673.9 960.087 674.153 959.955C674.407 959.822 674.606 959.638 674.75 959.403C674.894 959.169 674.966 958.898 674.966 958.591C674.966 958.288 674.894 958.023 674.75 957.795C674.606 957.564 674.409 957.384 674.159 957.256C673.909 957.123 673.617 957.057 673.284 957.057C672.955 957.057 672.663 957.123 672.409 957.256C672.155 957.384 671.956 957.564 671.812 957.795C671.672 958.023 671.602 958.288 671.602 958.591C671.602 958.898 671.674 959.169 671.818 959.403C671.962 959.638 672.161 959.822 672.415 959.955C672.669 960.087 672.958 960.153 673.284 960.153ZM683.822 967.159C682.974 967.159 682.218 967.013 681.555 966.722C680.896 966.426 680.375 966.021 679.993 965.506C679.614 964.987 679.419 964.388 679.408 963.71H681.885C681.9 963.994 681.993 964.244 682.163 964.46C682.338 964.672 682.569 964.837 682.857 964.955C683.144 965.072 683.468 965.131 683.828 965.131C684.203 965.131 684.535 965.064 684.822 964.932C685.11 964.799 685.336 964.616 685.499 964.381C685.661 964.146 685.743 963.875 685.743 963.568C685.743 963.258 685.656 962.983 685.482 962.744C685.311 962.502 685.065 962.312 684.743 962.176C684.425 962.04 684.046 961.972 683.607 961.972H682.521V960.165H683.607C683.978 960.165 684.305 960.1 684.589 959.972C684.877 959.843 685.101 959.665 685.26 959.438C685.419 959.206 685.499 958.938 685.499 958.631C685.499 958.339 685.429 958.083 685.288 957.864C685.152 957.64 684.959 957.466 684.709 957.341C684.463 957.216 684.175 957.153 683.845 957.153C683.512 957.153 683.207 957.214 682.93 957.335C682.654 957.453 682.432 957.621 682.266 957.841C682.099 958.061 682.01 958.318 681.999 958.614H679.641C679.652 957.943 679.843 957.352 680.214 956.841C680.586 956.33 681.086 955.93 681.714 955.642C682.347 955.35 683.061 955.205 683.857 955.205C684.66 955.205 685.362 955.35 685.964 955.642C686.567 955.934 687.035 956.328 687.368 956.824C687.705 957.316 687.872 957.869 687.868 958.483C687.872 959.134 687.669 959.678 687.26 960.114C686.855 960.549 686.326 960.826 685.675 960.943V961.034C686.531 961.144 687.182 961.441 687.629 961.926C688.08 962.407 688.304 963.009 688.3 963.733C688.304 964.396 688.112 964.985 687.726 965.5C687.343 966.015 686.815 966.42 686.141 966.716C685.466 967.011 684.694 967.159 683.822 967.159Z" fill="black"/>
<circle cx="594" cy="1085" r="24" fill="#FFD700" stroke="black" stroke-width="2"/>
<path d="M588.284 1052.16C587.409 1052.16 586.631 1052.02 585.949 1051.73C585.271 1051.45 584.739 1051.05 584.352 1050.56C583.966 1050.06 583.773 1049.5 583.773 1048.87C583.773 1048.38 583.883 1047.94 584.102 1047.53C584.326 1047.12 584.629 1046.79 585.011 1046.52C585.394 1046.24 585.822 1046.07 586.295 1045.99V1045.91C585.674 1045.79 585.17 1045.49 584.784 1045.01C584.398 1044.53 584.205 1043.97 584.205 1043.34C584.205 1042.73 584.381 1042.2 584.733 1041.73C585.085 1041.25 585.568 1040.88 586.182 1040.61C586.799 1040.34 587.5 1040.2 588.284 1040.2C589.068 1040.2 589.767 1040.34 590.381 1040.61C590.998 1040.89 591.483 1041.26 591.835 1041.73C592.188 1042.2 592.366 1042.74 592.369 1043.34C592.366 1043.98 592.169 1044.53 591.778 1045.01C591.388 1045.49 590.888 1045.79 590.278 1045.91V1045.99C590.744 1046.07 591.167 1046.24 591.545 1046.52C591.928 1046.79 592.231 1047.12 592.455 1047.53C592.682 1047.94 592.797 1048.38 592.801 1048.87C592.797 1049.5 592.602 1050.06 592.216 1050.56C591.83 1051.05 591.295 1051.45 590.614 1051.73C589.936 1052.02 589.159 1052.16 588.284 1052.16ZM588.284 1050.35C588.674 1050.35 589.015 1050.28 589.307 1050.14C589.598 1050 589.826 1049.8 589.989 1049.55C590.155 1049.3 590.239 1049.01 590.239 1048.68C590.239 1048.34 590.153 1048.04 589.983 1047.78C589.813 1047.52 589.581 1047.32 589.29 1047.17C588.998 1047.02 588.663 1046.94 588.284 1046.94C587.909 1046.94 587.574 1047.02 587.278 1047.17C586.983 1047.32 586.75 1047.52 586.58 1047.78C586.413 1048.04 586.33 1048.34 586.33 1048.68C586.33 1049.01 586.411 1049.3 586.574 1049.55C586.737 1049.8 586.966 1050 587.261 1050.14C587.557 1050.28 587.898 1050.35 588.284 1050.35ZM588.284 1045.15C588.61 1045.15 588.9 1045.09 589.153 1044.95C589.407 1044.82 589.606 1044.64 589.75 1044.4C589.894 1044.17 589.966 1043.9 589.966 1043.59C589.966 1043.29 589.894 1043.02 589.75 1042.8C589.606 1042.56 589.409 1042.38 589.159 1042.26C588.909 1042.12 588.617 1042.06 588.284 1042.06C587.955 1042.06 587.663 1042.12 587.409 1042.26C587.155 1042.38 586.956 1042.56 586.812 1042.8C586.672 1043.02 586.602 1043.29 586.602 1043.59C586.602 1043.9 586.674 1044.17 586.818 1044.4C586.962 1044.64 587.161 1044.82 587.415 1044.95C587.669 1045.09 587.958 1045.15 588.284 1045.15ZM594.345 1049.95V1048.02L599.203 1040.36H600.874V1043.05H599.885L596.822 1047.89V1047.98H603.726V1049.95H594.345ZM599.93 1052V1049.36L599.976 1048.51V1040.36H602.283V1052H599.93Z" fill="black"/>
<circle cx="677" cy="1084" r="24" fill="#FFD700" stroke="black" stroke-width="2"/>
<path d="M671.284 1051.16C670.409 1051.16 669.631 1051.02 668.949 1050.73C668.271 1050.45 667.739 1050.05 667.352 1049.56C666.966 1049.06 666.773 1048.5 666.773 1047.87C666.773 1047.38 666.883 1046.94 667.102 1046.53C667.326 1046.12 667.629 1045.79 668.011 1045.52C668.394 1045.24 668.822 1045.07 669.295 1044.99V1044.91C668.674 1044.79 668.17 1044.49 667.784 1044.01C667.398 1043.53 667.205 1042.97 667.205 1042.34C667.205 1041.73 667.381 1041.2 667.733 1040.73C668.085 1040.25 668.568 1039.88 669.182 1039.61C669.799 1039.34 670.5 1039.2 671.284 1039.2C672.068 1039.2 672.767 1039.34 673.381 1039.61C673.998 1039.89 674.483 1040.26 674.835 1040.73C675.188 1041.2 675.366 1041.74 675.369 1042.34C675.366 1042.98 675.169 1043.53 674.778 1044.01C674.388 1044.49 673.888 1044.79 673.278 1044.91V1044.99C673.744 1045.07 674.167 1045.24 674.545 1045.52C674.928 1045.79 675.231 1046.12 675.455 1046.53C675.682 1046.94 675.797 1047.38 675.801 1047.87C675.797 1048.5 675.602 1049.06 675.216 1049.56C674.83 1050.05 674.295 1050.45 673.614 1050.73C672.936 1051.02 672.159 1051.16 671.284 1051.16ZM671.284 1049.35C671.674 1049.35 672.015 1049.28 672.307 1049.14C672.598 1049 672.826 1048.8 672.989 1048.55C673.155 1048.3 673.239 1048.01 673.239 1047.68C673.239 1047.34 673.153 1047.04 672.983 1046.78C672.813 1046.52 672.581 1046.32 672.29 1046.17C671.998 1046.02 671.663 1045.94 671.284 1045.94C670.909 1045.94 670.574 1046.02 670.278 1046.17C669.983 1046.32 669.75 1046.52 669.58 1046.78C669.413 1047.04 669.33 1047.34 669.33 1047.68C669.33 1048.01 669.411 1048.3 669.574 1048.55C669.737 1048.8 669.966 1049 670.261 1049.14C670.557 1049.28 670.898 1049.35 671.284 1049.35ZM671.284 1044.15C671.61 1044.15 671.9 1044.09 672.153 1043.95C672.407 1043.82 672.606 1043.64 672.75 1043.4C672.894 1043.17 672.966 1042.9 672.966 1042.59C672.966 1042.29 672.894 1042.02 672.75 1041.8C672.606 1041.56 672.409 1041.38 672.159 1041.26C671.909 1041.12 671.617 1041.06 671.284 1041.06C670.955 1041.06 670.663 1041.12 670.409 1041.26C670.155 1041.38 669.956 1041.56 669.812 1041.8C669.672 1042.02 669.602 1042.29 669.602 1042.59C669.602 1042.9 669.674 1043.17 669.818 1043.4C669.962 1043.64 670.161 1043.82 670.415 1043.95C670.669 1044.09 670.958 1044.15 671.284 1044.15ZM681.771 1051.16C680.968 1051.16 680.252 1051.01 679.624 1050.72C678.999 1050.42 678.502 1050.01 678.135 1049.49C677.768 1048.98 677.576 1048.38 677.561 1047.71H679.947C679.974 1048.16 680.163 1048.53 680.516 1048.81C680.868 1049.09 681.286 1049.23 681.771 1049.23C682.158 1049.23 682.499 1049.14 682.794 1048.97C683.093 1048.8 683.326 1048.56 683.493 1048.25C683.663 1047.94 683.749 1047.58 683.749 1047.18C683.749 1046.77 683.661 1046.41 683.487 1046.1C683.317 1045.79 683.08 1045.55 682.777 1045.38C682.474 1045.2 682.127 1045.11 681.737 1045.11C681.396 1045.11 681.065 1045.18 680.743 1045.32C680.425 1045.46 680.177 1045.65 679.999 1045.89L677.811 1045.5L678.362 1039.36H685.476V1041.38H680.391L680.089 1044.29H680.158C680.362 1044 680.671 1043.76 681.084 1043.57C681.497 1043.38 681.959 1043.29 682.47 1043.29C683.171 1043.29 683.796 1043.45 684.345 1043.78C684.894 1044.11 685.328 1044.57 685.646 1045.14C685.964 1045.71 686.122 1046.37 686.118 1047.12C686.122 1047.9 685.94 1048.6 685.572 1049.21C685.209 1049.82 684.699 1050.29 684.044 1050.64C683.393 1050.99 682.635 1051.16 681.771 1051.16Z" fill="black"/>
<circle cx="594" cy="1169" r="24" fill="#FFD700" stroke="black" stroke-width="2"/>
<path d="M589.284 1136.16C588.409 1136.16 587.631 1136.02 586.949 1135.73C586.271 1135.45 585.739 1135.05 585.352 1134.56C584.966 1134.06 584.773 1133.5 584.773 1132.87C584.773 1132.38 584.883 1131.94 585.102 1131.53C585.326 1131.12 585.629 1130.79 586.011 1130.52C586.394 1130.24 586.822 1130.07 587.295 1129.99V1129.91C586.674 1129.79 586.17 1129.49 585.784 1129.01C585.398 1128.53 585.205 1127.97 585.205 1127.34C585.205 1126.73 585.381 1126.2 585.733 1125.73C586.085 1125.25 586.568 1124.88 587.182 1124.61C587.799 1124.34 588.5 1124.2 589.284 1124.2C590.068 1124.2 590.767 1124.34 591.381 1124.61C591.998 1124.89 592.483 1125.26 592.835 1125.73C593.188 1126.2 593.366 1126.74 593.369 1127.34C593.366 1127.98 593.169 1128.53 592.778 1129.01C592.388 1129.49 591.888 1129.79 591.278 1129.91V1129.99C591.744 1130.07 592.167 1130.24 592.545 1130.52C592.928 1130.79 593.231 1131.12 593.455 1131.53C593.682 1131.94 593.797 1132.38 593.801 1132.87C593.797 1133.5 593.602 1134.06 593.216 1134.56C592.83 1135.05 592.295 1135.45 591.614 1135.73C590.936 1136.02 590.159 1136.16 589.284 1136.16ZM589.284 1134.35C589.674 1134.35 590.015 1134.28 590.307 1134.14C590.598 1134 590.826 1133.8 590.989 1133.55C591.155 1133.3 591.239 1133.01 591.239 1132.68C591.239 1132.34 591.153 1132.04 590.983 1131.78C590.813 1131.52 590.581 1131.32 590.29 1131.17C589.998 1131.02 589.663 1130.94 589.284 1130.94C588.909 1130.94 588.574 1131.02 588.278 1131.17C587.983 1131.32 587.75 1131.52 587.58 1131.78C587.413 1132.04 587.33 1132.34 587.33 1132.68C587.33 1133.01 587.411 1133.3 587.574 1133.55C587.737 1133.8 587.966 1134 588.261 1134.14C588.557 1134.28 588.898 1134.35 589.284 1134.35ZM589.284 1129.15C589.61 1129.15 589.9 1129.09 590.153 1128.95C590.407 1128.82 590.606 1128.64 590.75 1128.4C590.894 1128.17 590.966 1127.9 590.966 1127.59C590.966 1127.29 590.894 1127.02 590.75 1126.8C590.606 1126.56 590.409 1126.38 590.159 1126.26C589.909 1126.12 589.617 1126.06 589.284 1126.06C588.955 1126.06 588.663 1126.12 588.409 1126.26C588.155 1126.38 587.956 1126.56 587.812 1126.8C587.672 1127.02 587.602 1127.29 587.602 1127.59C587.602 1127.9 587.674 1128.17 587.818 1128.4C587.962 1128.64 588.161 1128.82 588.415 1128.95C588.669 1129.09 588.958 1129.15 589.284 1129.15ZM599.987 1136.16C599.389 1136.16 598.811 1136.05 598.254 1135.86C597.701 1135.66 597.205 1135.34 596.766 1134.9C596.326 1134.45 595.978 1133.87 595.72 1133.14C595.466 1132.41 595.339 1131.51 595.339 1130.44C595.343 1129.47 595.455 1128.59 595.675 1127.82C595.898 1127.05 596.216 1126.4 596.629 1125.86C597.046 1125.32 597.544 1124.91 598.124 1124.63C598.703 1124.35 599.353 1124.2 600.072 1124.2C600.849 1124.2 601.535 1124.36 602.129 1124.66C602.724 1124.96 603.201 1125.37 603.561 1125.88C603.925 1126.4 604.144 1126.97 604.22 1127.61H601.794C601.699 1127.21 601.5 1126.89 601.197 1126.66C600.894 1126.43 600.519 1126.31 600.072 1126.31C599.315 1126.31 598.739 1126.64 598.345 1127.3C597.955 1127.96 597.756 1128.86 597.749 1129.99H597.828C598.002 1129.64 598.237 1129.35 598.533 1129.11C598.832 1128.86 599.171 1128.67 599.55 1128.55C599.932 1128.41 600.336 1128.35 600.76 1128.35C601.449 1128.35 602.063 1128.51 602.601 1128.84C603.139 1129.16 603.563 1129.6 603.874 1130.16C604.184 1130.73 604.339 1131.37 604.339 1132.1C604.339 1132.89 604.156 1133.59 603.788 1134.2C603.425 1134.82 602.915 1135.3 602.26 1135.65C601.608 1135.99 600.851 1136.16 599.987 1136.16ZM599.976 1134.23C600.355 1134.23 600.694 1134.14 600.993 1133.95C601.292 1133.77 601.527 1133.53 601.697 1133.22C601.868 1132.91 601.953 1132.56 601.953 1132.17C601.953 1131.78 601.868 1131.44 601.697 1131.13C601.531 1130.82 601.3 1130.58 601.004 1130.4C600.709 1130.22 600.372 1130.12 599.993 1130.12C599.709 1130.12 599.446 1130.18 599.203 1130.28C598.964 1130.39 598.754 1130.54 598.572 1130.73C598.394 1130.92 598.254 1131.14 598.152 1131.39C598.05 1131.63 597.999 1131.9 597.999 1132.18C597.999 1132.55 598.084 1132.89 598.254 1133.2C598.429 1133.52 598.663 1133.76 598.959 1133.95C599.258 1134.13 599.597 1134.23 599.976 1134.23Z" fill="black"/>
<circle cx="677" cy="1169" r="24" fill="#FFD700" stroke="black" stroke-width="2"/>
<path d="M671.284 1136.16C670.409 1136.16 669.631 1136.02 668.949 1135.73C668.271 1135.45 667.739 1135.05 667.352 1134.56C666.966 1134.06 666.773 1133.5 666.773 1132.87C666.773 1132.38 666.883 1131.94 667.102 1131.53C667.326 1131.12 667.629 1130.79 668.011 1130.52C668.394 1130.24 668.822 1130.07 669.295 1129.99V1129.91C668.674 1129.79 668.17 1129.49 667.784 1129.01C667.398 1128.53 667.205 1127.97 667.205 1127.34C667.205 1126.73 667.381 1126.2 667.733 1125.73C668.085 1125.25 668.568 1124.88 669.182 1124.61C669.799 1124.34 670.5 1124.2 671.284 1124.2C672.068 1124.2 672.767 1124.34 673.381 1124.61C673.998 1124.89 674.483 1125.26 674.835 1125.73C675.188 1126.2 675.366 1126.74 675.369 1127.34C675.366 1127.98 675.169 1128.53 674.778 1129.01C674.388 1129.49 673.888 1129.79 673.278 1129.91V1129.99C673.744 1130.07 674.167 1130.24 674.545 1130.52C674.928 1130.79 675.231 1131.12 675.455 1131.53C675.682 1131.94 675.797 1132.38 675.801 1132.87C675.797 1133.5 675.602 1134.06 675.216 1134.56C674.83 1135.05 674.295 1135.45 673.614 1135.73C672.936 1136.02 672.159 1136.16 671.284 1136.16ZM671.284 1134.35C671.674 1134.35 672.015 1134.28 672.307 1134.14C672.598 1134 672.826 1133.8 672.989 1133.55C673.155 1133.3 673.239 1133.01 673.239 1132.68C673.239 1132.34 673.153 1132.04 672.983 1131.78C672.813 1131.52 672.581 1131.32 672.29 1131.17C671.998 1131.02 671.663 1130.94 671.284 1130.94C670.909 1130.94 670.574 1131.02 670.278 1131.17C669.983 1131.32 669.75 1131.52 669.58 1131.78C669.413 1132.04 669.33 1132.34 669.33 1132.68C669.33 1133.01 669.411 1133.3 669.574 1133.55C669.737 1133.8 669.966 1134 670.261 1134.14C670.557 1134.28 670.898 1134.35 671.284 1134.35ZM671.284 1129.15C671.61 1129.15 671.9 1129.09 672.153 1128.95C672.407 1128.82 672.606 1128.64 672.75 1128.4C672.894 1128.17 672.966 1127.9 672.966 1127.59C672.966 1127.29 672.894 1127.02 672.75 1126.8C672.606 1126.56 672.409 1126.38 672.159 1126.26C671.909 1126.12 671.617 1126.06 671.284 1126.06C670.955 1126.06 670.663 1126.12 670.409 1126.26C670.155 1126.38 669.956 1126.56 669.812 1126.8C669.672 1127.02 669.602 1127.29 669.602 1127.59C669.602 1127.9 669.674 1128.17 669.818 1128.4C669.962 1128.64 670.161 1128.82 670.415 1128.95C670.669 1129.09 670.958 1129.15 671.284 1129.15ZM677.982 1136L682.805 1126.45V1126.38H677.186V1124.36H685.351V1126.4L680.521 1136H677.982Z" fill="black"/>
<circle cx="594" cy="1254" r="24" fill="#FFD700" stroke="black" stroke-width="2"/>
<path d="M587.284 1221.16C586.409 1221.16 585.631 1221.02 584.949 1220.73C584.271 1220.45 583.739 1220.05 583.352 1219.56C582.966 1219.06 582.773 1218.5 582.773 1217.87C582.773 1217.38 582.883 1216.94 583.102 1216.53C583.326 1216.12 583.629 1215.79 584.011 1215.52C584.394 1215.24 584.822 1215.07 585.295 1214.99V1214.91C584.674 1214.79 584.17 1214.49 583.784 1214.01C583.398 1213.53 583.205 1212.97 583.205 1212.34C583.205 1211.73 583.381 1211.2 583.733 1210.73C584.085 1210.25 584.568 1209.88 585.182 1209.61C585.799 1209.34 586.5 1209.2 587.284 1209.2C588.068 1209.2 588.767 1209.34 589.381 1209.61C589.998 1209.89 590.483 1210.26 590.835 1210.73C591.188 1211.2 591.366 1211.74 591.369 1212.34C591.366 1212.98 591.169 1213.53 590.778 1214.01C590.388 1214.49 589.888 1214.79 589.278 1214.91V1214.99C589.744 1215.07 590.167 1215.24 590.545 1215.52C590.928 1215.79 591.231 1216.12 591.455 1216.53C591.682 1216.94 591.797 1217.38 591.801 1217.87C591.797 1218.5 591.602 1219.06 591.216 1219.56C590.83 1220.05 590.295 1220.45 589.614 1220.73C588.936 1221.02 588.159 1221.16 587.284 1221.16ZM587.284 1219.35C587.674 1219.35 588.015 1219.28 588.307 1219.14C588.598 1219 588.826 1218.8 588.989 1218.55C589.155 1218.3 589.239 1218.01 589.239 1217.68C589.239 1217.34 589.153 1217.04 588.983 1216.78C588.813 1216.52 588.581 1216.32 588.29 1216.17C587.998 1216.02 587.663 1215.94 587.284 1215.94C586.909 1215.94 586.574 1216.02 586.278 1216.17C585.983 1216.32 585.75 1216.52 585.58 1216.78C585.413 1217.04 585.33 1217.34 585.33 1217.68C585.33 1218.01 585.411 1218.3 585.574 1218.55C585.737 1218.8 585.966 1219 586.261 1219.14C586.557 1219.28 586.898 1219.35 587.284 1219.35ZM587.284 1214.15C587.61 1214.15 587.9 1214.09 588.153 1213.95C588.407 1213.82 588.606 1213.64 588.75 1213.4C588.894 1213.17 588.966 1212.9 588.966 1212.59C588.966 1212.29 588.894 1212.02 588.75 1211.8C588.606 1211.56 588.409 1211.38 588.159 1211.26C587.909 1211.12 587.617 1211.06 587.284 1211.06C586.955 1211.06 586.663 1211.12 586.409 1211.26C586.155 1211.38 585.956 1211.56 585.812 1211.8C585.672 1212.02 585.602 1212.29 585.602 1212.59C585.602 1212.9 585.674 1213.17 585.818 1213.4C585.962 1213.64 586.161 1213.82 586.415 1213.95C586.669 1214.09 586.958 1214.15 587.284 1214.15ZM597.862 1221.16C596.987 1221.16 596.209 1221.02 595.527 1220.73C594.849 1220.45 594.317 1220.05 593.93 1219.56C593.544 1219.06 593.351 1218.5 593.351 1217.87C593.351 1217.38 593.461 1216.94 593.68 1216.53C593.904 1216.12 594.207 1215.79 594.589 1215.52C594.972 1215.24 595.4 1215.07 595.874 1214.99V1214.91C595.252 1214.79 594.749 1214.49 594.362 1214.01C593.976 1213.53 593.783 1212.97 593.783 1212.34C593.783 1211.73 593.959 1211.2 594.311 1210.73C594.663 1210.25 595.146 1209.88 595.76 1209.61C596.377 1209.34 597.078 1209.2 597.862 1209.2C598.646 1209.2 599.345 1209.34 599.959 1209.61C600.576 1209.89 601.061 1210.26 601.413 1210.73C601.766 1211.2 601.944 1211.74 601.947 1212.34C601.944 1212.98 601.747 1213.53 601.357 1214.01C600.966 1214.49 600.466 1214.79 599.857 1214.91V1214.99C600.322 1215.07 600.745 1215.24 601.124 1215.52C601.506 1215.79 601.809 1216.12 602.033 1216.53C602.26 1216.94 602.375 1217.38 602.379 1217.87C602.375 1218.5 602.18 1219.06 601.794 1219.56C601.408 1220.05 600.874 1220.45 600.192 1220.73C599.514 1221.02 598.737 1221.16 597.862 1221.16ZM597.862 1219.35C598.252 1219.35 598.593 1219.28 598.885 1219.14C599.177 1219 599.404 1218.8 599.567 1218.55C599.733 1218.3 599.817 1218.01 599.817 1217.68C599.817 1217.34 599.732 1217.04 599.561 1216.78C599.391 1216.52 599.16 1216.32 598.868 1216.17C598.576 1216.02 598.241 1215.94 597.862 1215.94C597.487 1215.94 597.152 1216.02 596.857 1216.17C596.561 1216.32 596.328 1216.52 596.158 1216.78C595.991 1217.04 595.908 1217.34 595.908 1217.68C595.908 1218.01 595.989 1218.3 596.152 1218.55C596.315 1218.8 596.544 1219 596.839 1219.14C597.135 1219.28 597.476 1219.35 597.862 1219.35ZM597.862 1214.15C598.188 1214.15 598.478 1214.09 598.732 1213.95C598.985 1213.82 599.184 1213.64 599.328 1213.4C599.472 1213.17 599.544 1212.9 599.544 1212.59C599.544 1212.29 599.472 1212.02 599.328 1211.8C599.184 1211.56 598.987 1211.38 598.737 1211.26C598.487 1211.12 598.196 1211.06 597.862 1211.06C597.533 1211.06 597.241 1211.12 596.987 1211.26C596.733 1211.38 596.535 1211.56 596.391 1211.8C596.25 1212.02 596.18 1212.29 596.18 1212.59C596.18 1212.9 596.252 1213.17 596.396 1213.4C596.54 1213.64 596.739 1213.82 596.993 1213.95C597.247 1214.09 597.536 1214.15 597.862 1214.15Z" fill="black"/>
<circle cx="677" cy="1253" r="24" fill="#FFD700" stroke="black" stroke-width="2"/>
<path d="M670.284 1220.16C669.409 1220.16 668.631 1220.02 667.949 1219.73C667.271 1219.45 666.739 1219.05 666.352 1218.56C665.966 1218.06 665.773 1217.5 665.773 1216.87C665.773 1216.38 665.883 1215.94 666.102 1215.53C666.326 1215.12 666.629 1214.79 667.011 1214.52C667.394 1214.24 667.822 1214.07 668.295 1213.99V1213.91C667.674 1213.79 667.17 1213.49 666.784 1213.01C666.398 1212.53 666.205 1211.97 666.205 1211.34C666.205 1210.73 666.381 1210.2 666.733 1209.73C667.085 1209.25 667.568 1208.88 668.182 1208.61C668.799 1208.34 669.5 1208.2 670.284 1208.2C671.068 1208.2 671.767 1208.34 672.381 1208.61C672.998 1208.89 673.483 1209.26 673.835 1209.73C674.188 1210.2 674.366 1210.74 674.369 1211.34C674.366 1211.98 674.169 1212.53 673.778 1213.01C673.388 1213.49 672.888 1213.79 672.278 1213.91V1213.99C672.744 1214.07 673.167 1214.24 673.545 1214.52C673.928 1214.79 674.231 1215.12 674.455 1215.53C674.682 1215.94 674.797 1216.38 674.801 1216.87C674.797 1217.5 674.602 1218.06 674.216 1218.56C673.83 1219.05 673.295 1219.45 672.614 1219.73C671.936 1220.02 671.159 1220.16 670.284 1220.16ZM670.284 1218.35C670.674 1218.35 671.015 1218.28 671.307 1218.14C671.598 1218 671.826 1217.8 671.989 1217.55C672.155 1217.3 672.239 1217.01 672.239 1216.68C672.239 1216.34 672.153 1216.04 671.983 1215.78C671.813 1215.52 671.581 1215.32 671.29 1215.17C670.998 1215.02 670.663 1214.94 670.284 1214.94C669.909 1214.94 669.574 1215.02 669.278 1215.17C668.983 1215.32 668.75 1215.52 668.58 1215.78C668.413 1216.04 668.33 1216.34 668.33 1216.68C668.33 1217.01 668.411 1217.3 668.574 1217.55C668.737 1217.8 668.966 1218 669.261 1218.14C669.557 1218.28 669.898 1218.35 670.284 1218.35ZM670.284 1213.15C670.61 1213.15 670.9 1213.09 671.153 1212.95C671.407 1212.82 671.606 1212.64 671.75 1212.4C671.894 1212.17 671.966 1211.9 671.966 1211.59C671.966 1211.29 671.894 1211.02 671.75 1210.8C671.606 1210.56 671.409 1210.38 671.159 1210.26C670.909 1210.12 670.617 1210.06 670.284 1210.06C669.955 1210.06 669.663 1210.12 669.409 1210.26C669.155 1210.38 668.956 1210.56 668.812 1210.8C668.672 1211.02 668.602 1211.29 668.602 1211.59C668.602 1211.9 668.674 1212.17 668.818 1212.4C668.962 1212.64 669.161 1212.82 669.415 1212.95C669.669 1213.09 669.958 1213.15 670.284 1213.15ZM680.732 1208.2C681.33 1208.2 681.906 1208.3 682.459 1208.51C683.016 1208.71 683.512 1209.03 683.947 1209.47C684.387 1209.91 684.733 1210.49 684.987 1211.22C685.245 1211.94 685.375 1212.83 685.379 1213.88C685.379 1214.87 685.268 1215.75 685.044 1216.53C684.824 1217.3 684.508 1217.96 684.095 1218.5C683.682 1219.04 683.184 1219.45 682.601 1219.74C682.018 1220.02 681.366 1220.16 680.646 1220.16C679.87 1220.16 679.184 1220.01 678.589 1219.71C677.995 1219.41 677.516 1219 677.152 1218.48C676.792 1217.95 676.574 1217.37 676.499 1216.72H678.925C679.019 1217.14 679.218 1217.47 679.521 1217.7C679.824 1217.94 680.199 1218.05 680.646 1218.05C681.404 1218.05 681.98 1217.72 682.374 1217.06C682.768 1216.4 682.966 1215.49 682.97 1214.34H682.891C682.716 1214.68 682.482 1214.98 682.186 1215.22C681.891 1215.46 681.552 1215.65 681.169 1215.78C680.79 1215.92 680.387 1215.98 679.959 1215.98C679.273 1215.98 678.661 1215.82 678.124 1215.5C677.586 1215.18 677.161 1214.73 676.851 1214.17C676.54 1213.61 676.385 1212.96 676.385 1212.24C676.381 1211.46 676.561 1210.76 676.925 1210.15C677.288 1209.54 677.796 1209.07 678.447 1208.72C679.103 1208.37 679.864 1208.2 680.732 1208.2ZM680.749 1210.14C680.366 1210.14 680.025 1210.23 679.726 1210.41C679.43 1210.59 679.196 1210.84 679.021 1211.14C678.851 1211.45 678.768 1211.79 678.771 1212.17C678.771 1212.55 678.855 1212.9 679.021 1213.2C679.192 1213.51 679.423 1213.75 679.714 1213.93C680.01 1214.11 680.347 1214.2 680.726 1214.2C681.01 1214.2 681.273 1214.15 681.516 1214.04C681.758 1213.93 681.968 1213.79 682.146 1213.6C682.328 1213.41 682.47 1213.2 682.572 1212.95C682.675 1212.7 682.726 1212.44 682.726 1212.16C682.722 1211.8 682.635 1211.46 682.464 1211.15C682.294 1210.85 682.059 1210.6 681.76 1210.41C681.461 1210.23 681.124 1210.14 680.749 1210.14Z" fill="black"/>
<path d="M338.887 990.094C338.745 988.662 338.135 987.549 337.058 986.756C335.981 985.963 334.519 985.567 332.673 985.567C331.418 985.567 330.358 985.744 329.494 986.099C328.63 986.443 327.967 986.922 327.506 987.538C327.056 988.153 326.831 988.852 326.831 989.633C326.807 990.284 326.943 990.852 327.239 991.337C327.547 991.823 327.967 992.243 328.5 992.598C329.033 992.941 329.648 993.243 330.347 993.504C331.045 993.752 331.791 993.965 332.584 994.143L335.851 994.924C337.437 995.279 338.893 995.753 340.219 996.344C341.545 996.936 342.693 997.664 343.663 998.528C344.634 999.393 345.386 1000.41 345.918 1001.58C346.463 1002.75 346.741 1004.1 346.753 1005.61C346.741 1007.84 346.173 1009.77 345.048 1011.4C343.936 1013.02 342.326 1014.28 340.219 1015.18C338.124 1016.07 335.596 1016.51 332.637 1016.51C329.701 1016.51 327.145 1016.07 324.967 1015.17C322.8 1014.27 321.108 1012.93 319.888 1011.17C318.681 1009.39 318.048 1007.2 317.989 1004.58H325.428C325.511 1005.8 325.86 1006.82 326.476 1007.64C327.103 1008.44 327.938 1009.05 328.979 1009.47C330.033 1009.87 331.223 1010.07 332.548 1010.07C333.85 1010.07 334.981 1009.88 335.94 1009.5C336.91 1009.12 337.662 1008.6 338.195 1007.92C338.727 1007.25 338.994 1006.47 338.994 1005.6C338.994 1004.78 338.751 1004.09 338.266 1003.54C337.792 1002.98 337.094 1002.51 336.17 1002.12C335.259 1001.72 334.14 1001.37 332.815 1001.05L328.855 1000.06C325.789 999.31 323.369 998.144 321.593 996.558C319.817 994.971 318.936 992.835 318.947 990.148C318.936 987.946 319.522 986.022 320.705 984.377C321.901 982.732 323.54 981.447 325.624 980.524C327.707 979.601 330.074 979.139 332.726 979.139C335.425 979.139 337.78 979.601 339.793 980.524C341.817 981.447 343.391 982.732 344.516 984.377C345.64 986.022 346.22 987.928 346.256 990.094H338.887ZM351.924 1016V979.636H376.427V985.975H359.612V994.64H375.166V1000.98H359.612V1009.66H376.498V1016H351.924ZM381.154 985.975V979.636H411.02V985.975H399.887V1016H392.287V985.975H381.154ZM447.694 997.818C447.694 1001.78 446.942 1005.16 445.439 1007.94C443.947 1010.72 441.911 1012.85 439.331 1014.31C436.762 1015.77 433.874 1016.5 430.666 1016.5C427.435 1016.5 424.535 1015.76 421.966 1014.3C419.397 1012.83 417.367 1010.7 415.876 1007.92C414.384 1005.14 413.638 1001.77 413.638 997.818C413.638 993.853 414.384 990.479 415.876 987.697C417.367 984.916 419.397 982.797 421.966 981.341C424.535 979.873 427.435 979.139 430.666 979.139C433.874 979.139 436.762 979.873 439.331 981.341C441.911 982.797 443.947 984.916 445.439 987.697C446.942 990.479 447.694 993.853 447.694 997.818ZM439.899 997.818C439.899 995.25 439.514 993.083 438.745 991.32C437.987 989.556 436.916 988.218 435.531 987.307C434.146 986.395 432.525 985.94 430.666 985.94C428.808 985.94 427.186 986.395 425.801 987.307C424.416 988.218 423.339 989.556 422.57 991.32C421.812 993.083 421.433 995.25 421.433 997.818C421.433 1000.39 421.812 1002.55 422.57 1004.32C423.339 1006.08 424.416 1007.42 425.801 1008.33C427.186 1009.24 428.808 1009.7 430.666 1009.7C432.525 1009.7 434.146 1009.24 435.531 1008.33C436.916 1007.42 437.987 1006.08 438.745 1004.32C439.514 1002.55 439.899 1000.39 439.899 997.818ZM453.389 1016V979.636H467.736C470.482 979.636 472.826 980.128 474.767 981.11C476.72 982.081 478.206 983.46 479.224 985.247C480.253 987.023 480.768 989.112 480.768 991.515C480.768 993.93 480.247 996.007 479.206 997.747C478.164 999.475 476.655 1000.8 474.678 1001.72C472.713 1002.65 470.334 1003.11 467.54 1003.11H457.934V996.93H466.297C467.765 996.93 468.984 996.729 469.955 996.327C470.926 995.924 471.648 995.321 472.121 994.516C472.607 993.711 472.849 992.71 472.849 991.515C472.849 990.308 472.607 989.29 472.121 988.461C471.648 987.632 470.92 987.005 469.937 986.579C468.967 986.141 467.742 985.922 466.262 985.922H461.077V1016H453.389ZM473.027 999.452L482.064 1016H473.577L464.735 999.452H473.027ZM504.042 1016H495.803L508.356 979.636H518.264L530.799 1016H522.561L513.452 987.946H513.168L504.042 1016ZM503.527 1001.71H522.987V1007.71H503.527V1001.71Z" fill="black"/>
<rect x="721.5" y="1122.5" width="593" height="525" fill="#A7A7A7"/>
<rect x="721.5" y="1122.5" width="593" height="525" stroke="black" stroke-width="3"/>
<path d="M934.887 1377.09C934.745 1375.66 934.135 1374.55 933.058 1373.76C931.981 1372.96 930.519 1372.57 928.673 1372.57C927.418 1372.57 926.358 1372.74 925.494 1373.1C924.63 1373.44 923.967 1373.92 923.506 1374.54C923.056 1375.15 922.831 1375.85 922.831 1376.63C922.807 1377.28 922.943 1377.85 923.239 1378.34C923.547 1378.82 923.967 1379.24 924.5 1379.6C925.033 1379.94 925.648 1380.24 926.347 1380.5C927.045 1380.75 927.791 1380.97 928.584 1381.14L931.851 1381.92C933.437 1382.28 934.893 1382.75 936.219 1383.34C937.545 1383.94 938.693 1384.66 939.663 1385.53C940.634 1386.39 941.386 1387.41 941.918 1388.58C942.463 1389.75 942.741 1391.1 942.753 1392.61C942.741 1394.84 942.173 1396.77 941.048 1398.4C939.936 1400.02 938.326 1401.28 936.219 1402.18C934.124 1403.07 931.596 1403.51 928.637 1403.51C925.701 1403.51 923.145 1403.07 920.967 1402.17C918.8 1401.27 917.108 1399.93 915.888 1398.17C914.681 1396.39 914.048 1394.2 913.989 1391.58H921.428C921.511 1392.8 921.86 1393.82 922.476 1394.64C923.103 1395.44 923.938 1396.05 924.979 1396.47C926.033 1396.87 927.223 1397.07 928.548 1397.07C929.85 1397.07 930.981 1396.88 931.94 1396.5C932.91 1396.12 933.662 1395.6 934.195 1394.92C934.727 1394.25 934.994 1393.47 934.994 1392.6C934.994 1391.78 934.751 1391.09 934.266 1390.54C933.792 1389.98 933.094 1389.51 932.17 1389.12C931.259 1388.72 930.14 1388.37 928.815 1388.05L924.855 1387.06C921.789 1386.31 919.369 1385.14 917.593 1383.56C915.817 1381.97 914.936 1379.83 914.947 1377.15C914.936 1374.95 915.522 1373.02 916.705 1371.38C917.901 1369.73 919.54 1368.45 921.624 1367.52C923.707 1366.6 926.074 1366.14 928.726 1366.14C931.425 1366.14 933.78 1366.6 935.793 1367.52C937.817 1368.45 939.391 1369.73 940.516 1371.38C941.64 1373.02 942.22 1374.93 942.256 1377.09H934.887ZM947.924 1403V1366.64H972.427V1372.98H955.612V1381.64H971.166V1387.98H955.612V1396.66H972.498V1403H947.924ZM977.154 1372.98V1366.64H1007.02V1372.98H995.887V1403H988.287V1372.98H977.154ZM1043.69 1384.82C1043.69 1388.78 1042.94 1392.16 1041.44 1394.94C1039.95 1397.72 1037.91 1399.85 1035.33 1401.31C1032.76 1402.77 1029.87 1403.5 1026.67 1403.5C1023.43 1403.5 1020.53 1402.76 1017.97 1401.3C1015.4 1399.83 1013.37 1397.7 1011.88 1394.92C1010.38 1392.14 1009.64 1388.77 1009.64 1384.82C1009.64 1380.85 1010.38 1377.48 1011.88 1374.7C1013.37 1371.92 1015.4 1369.8 1017.97 1368.34C1020.53 1366.87 1023.43 1366.14 1026.67 1366.14C1029.87 1366.14 1032.76 1366.87 1035.33 1368.34C1037.91 1369.8 1039.95 1371.92 1041.44 1374.7C1042.94 1377.48 1043.69 1380.85 1043.69 1384.82ZM1035.9 1384.82C1035.9 1382.25 1035.51 1380.08 1034.75 1378.32C1033.99 1376.56 1032.92 1375.22 1031.53 1374.31C1030.15 1373.4 1028.52 1372.94 1026.67 1372.94C1024.81 1372.94 1023.19 1373.4 1021.8 1374.31C1020.42 1375.22 1019.34 1376.56 1018.57 1378.32C1017.81 1380.08 1017.43 1382.25 1017.43 1384.82C1017.43 1387.39 1017.81 1389.55 1018.57 1391.32C1019.34 1393.08 1020.42 1394.42 1021.8 1395.33C1023.19 1396.24 1024.81 1396.7 1026.67 1396.7C1028.52 1396.7 1030.15 1396.24 1031.53 1395.33C1032.92 1394.42 1033.99 1393.08 1034.75 1391.32C1035.51 1389.55 1035.9 1387.39 1035.9 1384.82ZM1049.39 1403V1366.64H1063.74C1066.48 1366.64 1068.83 1367.13 1070.77 1368.11C1072.72 1369.08 1074.21 1370.46 1075.22 1372.25C1076.25 1374.02 1076.77 1376.11 1076.77 1378.51C1076.77 1380.93 1076.25 1383.01 1075.21 1384.75C1074.16 1386.48 1072.65 1387.8 1070.68 1388.72C1068.71 1389.65 1066.33 1390.11 1063.54 1390.11H1053.93V1383.93H1062.3C1063.77 1383.93 1064.98 1383.73 1065.96 1383.33C1066.93 1382.92 1067.65 1382.32 1068.12 1381.52C1068.61 1380.71 1068.85 1379.71 1068.85 1378.51C1068.85 1377.31 1068.61 1376.29 1068.12 1375.46C1067.65 1374.63 1066.92 1374 1065.94 1373.58C1064.97 1373.14 1063.74 1372.92 1062.26 1372.92H1057.08V1403H1049.39ZM1069.03 1386.45L1078.06 1403H1069.58L1060.73 1386.45H1069.03ZM1093.77 1403V1366.64H1108.33C1111.01 1366.64 1113.24 1367.03 1115.03 1367.83C1116.81 1368.62 1118.16 1369.72 1119.06 1371.13C1119.96 1372.53 1120.41 1374.14 1120.41 1375.96C1120.41 1377.38 1120.12 1378.63 1119.56 1379.7C1118.99 1380.77 1118.21 1381.65 1117.21 1382.33C1116.23 1383.01 1115.1 1383.49 1113.84 1383.77V1384.13C1115.22 1384.18 1116.52 1384.58 1117.73 1385.3C1118.95 1386.02 1119.93 1387.03 1120.69 1388.33C1121.45 1389.62 1121.83 1391.16 1121.83 1392.95C1121.83 1394.88 1121.35 1396.6 1120.39 1398.12C1119.44 1399.62 1118.04 1400.81 1116.18 1401.69C1114.32 1402.56 1112.03 1403 1109.31 1403H1093.77ZM1101.46 1396.71H1107.73C1109.87 1396.71 1111.43 1396.31 1112.42 1395.49C1113.4 1394.66 1113.89 1393.56 1113.89 1392.19C1113.89 1391.18 1113.65 1390.29 1113.16 1389.52C1112.68 1388.75 1111.99 1388.15 1111.09 1387.71C1110.2 1387.27 1109.14 1387.06 1107.91 1387.06H1101.46V1396.71ZM1101.46 1381.85H1107.16C1108.22 1381.85 1109.15 1381.67 1109.97 1381.3C1110.8 1380.92 1111.45 1380.39 1111.92 1379.7C1112.41 1379.02 1112.65 1378.2 1112.65 1377.24C1112.65 1375.92 1112.18 1374.86 1111.25 1374.06C1110.32 1373.25 1109.01 1372.85 1107.3 1372.85H1101.46V1381.85Z" fill="black"/>
<rect x="1316.5" y="346.5" width="588" height="1301" fill="#5A5B5D"/>
<rect x="1316.5" y="346.5" width="588" height="1301" stroke="black" stroke-width="3"/>
<mask id="path-43-outside-1_2355_1434" maskUnits="userSpaceOnUse" x="1502" y="978" width="215" height="40" fill="black">
<rect fill="white" x="1502" y="978" width="215" height="40"/>
<path d="M1524.89 990.094C1524.75 988.662 1524.14 987.549 1523.06 986.756C1521.98 985.963 1520.52 985.567 1518.67 985.567C1517.42 985.567 1516.36 985.744 1515.49 986.099C1514.63 986.443 1513.97 986.922 1513.51 987.538C1513.06 988.153 1512.83 988.852 1512.83 989.633C1512.81 990.284 1512.94 990.852 1513.24 991.337C1513.55 991.823 1513.97 992.243 1514.5 992.598C1515.03 992.941 1515.65 993.243 1516.35 993.504C1517.04 993.752 1517.79 993.965 1518.58 994.143L1521.85 994.924C1523.44 995.279 1524.89 995.753 1526.22 996.344C1527.54 996.936 1528.69 997.664 1529.66 998.528C1530.63 999.393 1531.39 1000.41 1531.92 1001.58C1532.46 1002.75 1532.74 1004.1 1532.75 1005.61C1532.74 1007.84 1532.17 1009.77 1531.05 1011.4C1529.94 1013.02 1528.33 1014.28 1526.22 1015.18C1524.12 1016.07 1521.6 1016.51 1518.64 1016.51C1515.7 1016.51 1513.14 1016.07 1510.97 1015.17C1508.8 1014.27 1507.11 1012.93 1505.89 1011.17C1504.68 1009.39 1504.05 1007.2 1503.99 1004.58H1511.43C1511.51 1005.8 1511.86 1006.82 1512.48 1007.64C1513.1 1008.44 1513.94 1009.05 1514.98 1009.47C1516.03 1009.87 1517.22 1010.07 1518.55 1010.07C1519.85 1010.07 1520.98 1009.88 1521.94 1009.5C1522.91 1009.12 1523.66 1008.6 1524.19 1007.92C1524.73 1007.25 1524.99 1006.47 1524.99 1005.6C1524.99 1004.78 1524.75 1004.09 1524.27 1003.54C1523.79 1002.98 1523.09 1002.51 1522.17 1002.12C1521.26 1001.72 1520.14 1001.37 1518.81 1001.05L1514.86 1000.06C1511.79 999.31 1509.37 998.144 1507.59 996.558C1505.82 994.971 1504.94 992.835 1504.95 990.148C1504.94 987.946 1505.52 986.022 1506.71 984.377C1507.9 982.732 1509.54 981.447 1511.62 980.524C1513.71 979.601 1516.07 979.139 1518.73 979.139C1521.42 979.139 1523.78 979.601 1525.79 980.524C1527.82 981.447 1529.39 982.732 1530.52 984.377C1531.64 986.022 1532.22 987.928 1532.26 990.094H1524.89ZM1537.92 1016V979.636H1562.43V985.975H1545.61V994.64H1561.17V1000.98H1545.61V1009.66H1562.5V1016H1537.92ZM1567.15 985.975V979.636H1597.02V985.975H1585.89V1016H1578.29V985.975H1567.15ZM1633.69 997.818C1633.69 1001.78 1632.94 1005.16 1631.44 1007.94C1629.95 1010.72 1627.91 1012.85 1625.33 1014.31C1622.76 1015.77 1619.87 1016.5 1616.67 1016.5C1613.43 1016.5 1610.53 1015.76 1607.97 1014.3C1605.4 1012.83 1603.37 1010.7 1601.88 1007.92C1600.38 1005.14 1599.64 1001.77 1599.64 997.818C1599.64 993.853 1600.38 990.479 1601.88 987.697C1603.37 984.916 1605.4 982.797 1607.97 981.341C1610.53 979.873 1613.43 979.139 1616.67 979.139C1619.87 979.139 1622.76 979.873 1625.33 981.341C1627.91 982.797 1629.95 984.916 1631.44 987.697C1632.94 990.479 1633.69 993.853 1633.69 997.818ZM1625.9 997.818C1625.9 995.25 1625.51 993.083 1624.75 991.32C1623.99 989.556 1622.92 988.218 1621.53 987.307C1620.15 986.395 1618.52 985.94 1616.67 985.94C1614.81 985.94 1613.19 986.395 1611.8 987.307C1610.42 988.218 1609.34 989.556 1608.57 991.32C1607.81 993.083 1607.43 995.25 1607.43 997.818C1607.43 1000.39 1607.81 1002.55 1608.57 1004.32C1609.34 1006.08 1610.42 1007.42 1611.8 1008.33C1613.19 1009.24 1614.81 1009.7 1616.67 1009.7C1618.52 1009.7 1620.15 1009.24 1621.53 1008.33C1622.92 1007.42 1623.99 1006.08 1624.75 1004.32C1625.51 1002.55 1625.9 1000.39 1625.9 997.818ZM1639.39 1016V979.636H1653.74C1656.48 979.636 1658.83 980.128 1660.77 981.11C1662.72 982.081 1664.21 983.46 1665.22 985.247C1666.25 987.023 1666.77 989.112 1666.77 991.515C1666.77 993.93 1666.25 996.007 1665.21 997.747C1664.16 999.475 1662.65 1000.8 1660.68 1001.72C1658.71 1002.65 1656.33 1003.11 1653.54 1003.11H1643.93V996.93H1652.3C1653.77 996.93 1654.98 996.729 1655.96 996.327C1656.93 995.924 1657.65 995.321 1658.12 994.516C1658.61 993.711 1658.85 992.71 1658.85 991.515C1658.85 990.308 1658.61 989.29 1658.12 988.461C1657.65 987.632 1656.92 987.005 1655.94 986.579C1654.97 986.141 1653.74 985.922 1652.26 985.922H1647.08V1016H1639.39ZM1659.03 999.452L1668.06 1016H1659.58L1650.73 999.452H1659.03ZM1715.86 992.367H1708.08C1707.94 991.361 1707.65 990.467 1707.21 989.686C1706.77 988.893 1706.21 988.218 1705.52 987.662C1704.84 987.106 1704.04 986.679 1703.15 986.384C1702.26 986.088 1701.29 985.94 1700.25 985.94C1698.37 985.94 1696.73 986.407 1695.33 987.342C1693.94 988.266 1692.85 989.615 1692.08 991.391C1691.31 993.154 1690.93 995.297 1690.93 997.818C1690.93 1000.41 1691.31 1002.59 1692.08 1004.35C1692.86 1006.12 1693.95 1007.45 1695.35 1008.35C1696.75 1009.25 1698.36 1009.7 1700.2 1009.7C1701.23 1009.7 1702.18 1009.56 1703.06 1009.29C1703.94 1009.02 1704.73 1008.62 1705.42 1008.1C1706.1 1007.57 1706.67 1006.92 1707.12 1006.16C1707.58 1005.41 1707.9 1004.54 1708.08 1003.57L1715.86 1003.61C1715.66 1005.28 1715.15 1006.89 1714.35 1008.44C1713.56 1009.97 1712.48 1011.35 1711.14 1012.57C1709.8 1013.78 1708.2 1014.74 1706.34 1015.45C1704.49 1016.15 1702.41 1016.5 1700.07 1016.5C1696.83 1016.5 1693.93 1015.76 1691.37 1014.3C1688.83 1012.83 1686.82 1010.7 1685.34 1007.92C1683.87 1005.14 1683.13 1001.77 1683.13 997.818C1683.13 993.853 1683.88 990.479 1685.37 987.697C1686.86 984.916 1688.89 982.797 1691.44 981.341C1694 979.873 1696.88 979.139 1700.07 979.139C1702.18 979.139 1704.13 979.435 1705.93 980.027C1707.74 980.619 1709.35 981.483 1710.74 982.619C1712.14 983.744 1713.28 985.123 1714.15 986.756C1715.04 988.39 1715.61 990.26 1715.86 992.367Z"/>
</mask>
<path d="M1524.89 990.094C1524.75 988.662 1524.14 987.549 1523.06 986.756C1521.98 985.963 1520.52 985.567 1518.67 985.567C1517.42 985.567 1516.36 985.744 1515.49 986.099C1514.63 986.443 1513.97 986.922 1513.51 987.538C1513.06 988.153 1512.83 988.852 1512.83 989.633C1512.81 990.284 1512.94 990.852 1513.24 991.337C1513.55 991.823 1513.97 992.243 1514.5 992.598C1515.03 992.941 1515.65 993.243 1516.35 993.504C1517.04 993.752 1517.79 993.965 1518.58 994.143L1521.85 994.924C1523.44 995.279 1524.89 995.753 1526.22 996.344C1527.54 996.936 1528.69 997.664 1529.66 998.528C1530.63 999.393 1531.39 1000.41 1531.92 1001.58C1532.46 1002.75 1532.74 1004.1 1532.75 1005.61C1532.74 1007.84 1532.17 1009.77 1531.05 1011.4C1529.94 1013.02 1528.33 1014.28 1526.22 1015.18C1524.12 1016.07 1521.6 1016.51 1518.64 1016.51C1515.7 1016.51 1513.14 1016.07 1510.97 1015.17C1508.8 1014.27 1507.11 1012.93 1505.89 1011.17C1504.68 1009.39 1504.05 1007.2 1503.99 1004.58H1511.43C1511.51 1005.8 1511.86 1006.82 1512.48 1007.64C1513.1 1008.44 1513.94 1009.05 1514.98 1009.47C1516.03 1009.87 1517.22 1010.07 1518.55 1010.07C1519.85 1010.07 1520.98 1009.88 1521.94 1009.5C1522.91 1009.12 1523.66 1008.6 1524.19 1007.92C1524.73 1007.25 1524.99 1006.47 1524.99 1005.6C1524.99 1004.78 1524.75 1004.09 1524.27 1003.54C1523.79 1002.98 1523.09 1002.51 1522.17 1002.12C1521.26 1001.72 1520.14 1001.37 1518.81 1001.05L1514.86 1000.06C1511.79 999.31 1509.37 998.144 1507.59 996.558C1505.82 994.971 1504.94 992.835 1504.95 990.148C1504.94 987.946 1505.52 986.022 1506.71 984.377C1507.9 982.732 1509.54 981.447 1511.62 980.524C1513.71 979.601 1516.07 979.139 1518.73 979.139C1521.42 979.139 1523.78 979.601 1525.79 980.524C1527.82 981.447 1529.39 982.732 1530.52 984.377C1531.64 986.022 1532.22 987.928 1532.26 990.094H1524.89ZM1537.92 1016V979.636H1562.43V985.975H1545.61V994.64H1561.17V1000.98H1545.61V1009.66H1562.5V1016H1537.92ZM1567.15 985.975V979.636H1597.02V985.975H1585.89V1016H1578.29V985.975H1567.15ZM1633.69 997.818C1633.69 1001.78 1632.94 1005.16 1631.44 1007.94C1629.95 1010.72 1627.91 1012.85 1625.33 1014.31C1622.76 1015.77 1619.87 1016.5 1616.67 1016.5C1613.43 1016.5 1610.53 1015.76 1607.97 1014.3C1605.4 1012.83 1603.37 1010.7 1601.88 1007.92C1600.38 1005.14 1599.64 1001.77 1599.64 997.818C1599.64 993.853 1600.38 990.479 1601.88 987.697C1603.37 984.916 1605.4 982.797 1607.97 981.341C1610.53 979.873 1613.43 979.139 1616.67 979.139C1619.87 979.139 1622.76 979.873 1625.33 981.341C1627.91 982.797 1629.95 984.916 1631.44 987.697C1632.94 990.479 1633.69 993.853 1633.69 997.818ZM1625.9 997.818C1625.9 995.25 1625.51 993.083 1624.75 991.32C1623.99 989.556 1622.92 988.218 1621.53 987.307C1620.15 986.395 1618.52 985.94 1616.67 985.94C1614.81 985.94 1613.19 986.395 1611.8 987.307C1610.42 988.218 1609.34 989.556 1608.57 991.32C1607.81 993.083 1607.43 995.25 1607.43 997.818C1607.43 1000.39 1607.81 1002.55 1608.57 1004.32C1609.34 1006.08 1610.42 1007.42 1611.8 1008.33C1613.19 1009.24 1614.81 1009.7 1616.67 1009.7C1618.52 1009.7 1620.15 1009.24 1621.53 1008.33C1622.92 1007.42 1623.99 1006.08 1624.75 1004.32C1625.51 1002.55 1625.9 1000.39 1625.9 997.818ZM1639.39 1016V979.636H1653.74C1656.48 979.636 1658.83 980.128 1660.77 981.11C1662.72 982.081 1664.21 983.46 1665.22 985.247C1666.25 987.023 1666.77 989.112 1666.77 991.515C1666.77 993.93 1666.25 996.007 1665.21 997.747C1664.16 999.475 1662.65 1000.8 1660.68 1001.72C1658.71 1002.65 1656.33 1003.11 1653.54 1003.11H1643.93V996.93H1652.3C1653.77 996.93 1654.98 996.729 1655.96 996.327C1656.93 995.924 1657.65 995.321 1658.12 994.516C1658.61 993.711 1658.85 992.71 1658.85 991.515C1658.85 990.308 1658.61 989.29 1658.12 988.461C1657.65 987.632 1656.92 987.005 1655.94 986.579C1654.97 986.141 1653.74 985.922 1652.26 985.922H1647.08V1016H1639.39ZM1659.03 999.452L1668.06 1016H1659.58L1650.73 999.452H1659.03ZM1715.86 992.367H1708.08C1707.94 991.361 1707.65 990.467 1707.21 989.686C1706.77 988.893 1706.21 988.218 1705.52 987.662C1704.84 987.106 1704.04 986.679 1703.15 986.384C1702.26 986.088 1701.29 985.94 1700.25 985.94C1698.37 985.94 1696.73 986.407 1695.33 987.342C1693.94 988.266 1692.85 989.615 1692.08 991.391C1691.31 993.154 1690.93 995.297 1690.93 997.818C1690.93 1000.41 1691.31 1002.59 1692.08 1004.35C1692.86 1006.12 1693.95 1007.45 1695.35 1008.35C1696.75 1009.25 1698.36 1009.7 1700.2 1009.7C1701.23 1009.7 1702.18 1009.56 1703.06 1009.29C1703.94 1009.02 1704.73 1008.62 1705.42 1008.1C1706.1 1007.57 1706.67 1006.92 1707.12 1006.16C1707.58 1005.41 1707.9 1004.54 1708.08 1003.57L1715.86 1003.61C1715.66 1005.28 1715.15 1006.89 1714.35 1008.44C1713.56 1009.97 1712.48 1011.35 1711.14 1012.57C1709.8 1013.78 1708.2 1014.74 1706.34 1015.45C1704.49 1016.15 1702.41 1016.5 1700.07 1016.5C1696.83 1016.5 1693.93 1015.76 1691.37 1014.3C1688.83 1012.83 1686.82 1010.7 1685.34 1007.92C1683.87 1005.14 1683.13 1001.77 1683.13 997.818C1683.13 993.853 1683.88 990.479 1685.37 987.697C1686.86 984.916 1688.89 982.797 1691.44 981.341C1694 979.873 1696.88 979.139 1700.07 979.139C1702.18 979.139 1704.13 979.435 1705.93 980.027C1707.74 980.619 1709.35 981.483 1710.74 982.619C1712.14 983.744 1713.28 985.123 1714.15 986.756C1715.04 988.39 1715.61 990.26 1715.86 992.367Z" fill="white"/>
<path d="M1524.89 990.094L1523.89 990.193L1523.98 991.094H1524.89V990.094ZM1515.49 986.099L1515.86 987.029L1515.87 987.024L1515.49 986.099ZM1513.51 987.538L1512.71 986.938L1512.7 986.948L1513.51 987.538ZM1512.83 989.633L1513.83 989.669L1513.83 989.651V989.633H1512.83ZM1513.24 991.337L1512.39 991.858L1512.39 991.865L1512.39 991.873L1513.24 991.337ZM1514.5 992.598L1513.95 993.43L1513.95 993.434L1513.96 993.439L1514.5 992.598ZM1516.35 993.504L1516 994.441L1516 994.443L1516.01 994.446L1516.35 993.504ZM1518.58 994.143L1518.82 993.17L1518.81 993.168L1518.8 993.167L1518.58 994.143ZM1521.85 994.924L1521.62 995.897L1521.63 995.898L1521.63 995.9L1521.85 994.924ZM1526.22 996.344L1525.81 997.258L1525.81 997.258L1526.22 996.344ZM1529.66 998.528L1530.33 997.782L1530.33 997.782L1529.66 998.528ZM1531.92 1001.58L1531.01 1002L1531.01 1002L1531.92 1001.58ZM1532.75 1005.61L1533.75 1005.62L1533.75 1005.61L1532.75 1005.61ZM1531.05 1011.4L1530.22 1010.83L1530.22 1010.84L1531.05 1011.4ZM1526.22 1015.18L1526.61 1016.1L1526.61 1016.1L1526.22 1015.18ZM1510.97 1015.17L1510.58 1016.09L1510.58 1016.09L1510.97 1015.17ZM1505.89 1011.17L1505.06 1011.73L1505.07 1011.74L1505.89 1011.17ZM1503.99 1004.58V1003.58H1502.97L1502.99 1004.61L1503.99 1004.58ZM1511.43 1004.58L1512.43 1004.52L1512.36 1003.58H1511.43V1004.58ZM1512.48 1007.64L1511.68 1008.24L1511.68 1008.25L1511.69 1008.25L1512.48 1007.64ZM1514.98 1009.47L1514.61 1010.4L1514.62 1010.4L1514.98 1009.47ZM1521.94 1009.5L1521.58 1008.57L1521.57 1008.57L1521.94 1009.5ZM1524.19 1007.92L1524.98 1008.54L1524.98 1008.54L1524.19 1007.92ZM1524.27 1003.54L1523.5 1004.18L1523.51 1004.19L1524.27 1003.54ZM1522.17 1002.12L1521.78 1003.03L1521.78 1003.04L1522.17 1002.12ZM1518.81 1001.05L1518.57 1002.02L1518.58 1002.02L1518.81 1001.05ZM1514.86 1000.06L1515.1 999.085L1515.09 999.084L1514.86 1000.06ZM1507.59 996.558L1506.93 997.303L1506.93 997.303L1507.59 996.558ZM1504.95 990.148L1505.95 990.152L1505.95 990.142L1504.95 990.148ZM1506.71 984.377L1505.9 983.789L1505.89 983.793L1506.71 984.377ZM1525.79 980.524L1525.38 981.433L1525.38 981.434L1525.79 980.524ZM1530.52 984.377L1529.69 984.941L1529.69 984.941L1530.52 984.377ZM1532.26 990.094V991.094H1533.27L1533.26 990.078L1532.26 990.094ZM1525.88 989.996C1525.71 988.306 1524.98 986.926 1523.65 985.951L1522.47 987.562C1523.3 988.173 1523.78 989.019 1523.89 990.193L1525.88 989.996ZM1523.65 985.951C1522.35 984.991 1520.65 984.567 1518.67 984.567V986.567C1520.39 986.567 1521.61 986.935 1522.47 987.562L1523.65 985.951ZM1518.67 984.567C1517.33 984.567 1516.13 984.756 1515.11 985.174L1515.87 987.024C1516.58 986.733 1517.51 986.567 1518.67 986.567V984.567ZM1515.13 985.17C1514.13 985.567 1513.3 986.147 1512.71 986.938L1514.31 988.138C1514.64 987.698 1515.13 987.318 1515.86 987.029L1515.13 985.17ZM1512.7 986.948C1512.12 987.739 1511.83 988.645 1511.83 989.633H1513.83C1513.83 989.058 1513.99 988.567 1514.31 988.128L1512.7 986.948ZM1511.83 989.596C1511.8 990.414 1511.97 991.182 1512.39 991.858L1514.09 990.817C1513.91 990.522 1513.81 990.154 1513.83 989.669L1511.83 989.596ZM1512.39 991.873C1512.79 992.489 1513.31 993.006 1513.95 993.43L1515.05 991.766C1514.62 991.479 1514.31 991.156 1514.08 990.802L1512.39 991.873ZM1513.96 993.439C1514.56 993.827 1515.24 994.159 1516 994.441L1516.7 992.567C1516.05 992.327 1515.5 992.056 1515.04 991.757L1513.96 993.439ZM1516.01 994.446C1516.75 994.709 1517.54 994.933 1518.37 995.119L1518.8 993.167C1518.05 992.997 1517.34 992.795 1516.68 992.561L1516.01 994.446ZM1518.35 995.115L1521.62 995.897L1522.08 993.951L1518.82 993.17L1518.35 995.115ZM1521.63 995.9C1523.16 996.242 1524.55 996.696 1525.81 997.258L1526.63 995.431C1525.23 994.809 1523.71 994.316 1522.07 993.948L1521.63 995.9ZM1525.81 997.258C1527.05 997.812 1528.11 998.487 1529 999.275L1530.33 997.782C1529.27 996.842 1528.04 996.06 1526.63 995.431L1525.81 997.258ZM1529 999.275C1529.87 1000.05 1530.53 1000.95 1531.01 1002L1532.83 1001.17C1532.24 999.869 1531.4 998.737 1530.33 997.782L1529 999.275ZM1531.01 1002C1531.49 1003.03 1531.74 1004.22 1531.75 1005.62L1533.75 1005.61C1533.74 1003.97 1533.44 1002.48 1532.83 1001.16L1531.01 1002ZM1531.75 1005.61C1531.74 1007.66 1531.22 1009.39 1530.22 1010.83L1531.87 1011.97C1533.12 1010.15 1533.74 1008.02 1533.75 1005.62L1531.75 1005.61ZM1530.22 1010.84C1529.24 1012.28 1527.79 1013.43 1525.83 1014.26L1526.61 1016.1C1528.86 1015.14 1530.64 1013.77 1531.87 1011.97L1530.22 1010.84ZM1525.83 1014.26C1523.89 1015.08 1521.5 1015.51 1518.64 1015.51V1017.51C1521.69 1017.51 1524.36 1017.06 1526.61 1016.1L1525.83 1014.26ZM1518.64 1015.51C1515.8 1015.51 1513.38 1015.08 1511.35 1014.24L1510.58 1016.09C1512.91 1017.05 1515.6 1017.51 1518.64 1017.51V1015.51ZM1511.35 1014.24C1509.34 1013.41 1507.81 1012.19 1506.71 1010.6L1505.07 1011.74C1506.4 1013.68 1508.26 1015.12 1510.58 1016.09L1511.35 1014.24ZM1506.72 1010.61C1505.64 1009.02 1505.04 1007.03 1504.99 1004.56L1502.99 1004.61C1503.05 1007.37 1503.72 1009.77 1505.06 1011.73L1506.72 1010.61ZM1503.99 1005.58H1511.43V1003.58H1503.99V1005.58ZM1510.43 1004.65C1510.52 1006.03 1510.92 1007.24 1511.68 1008.24L1513.27 1007.04C1512.8 1006.4 1512.5 1005.58 1512.43 1004.52L1510.43 1004.65ZM1511.69 1008.25C1512.43 1009.21 1513.42 1009.92 1514.61 1010.4L1515.35 1008.54C1514.46 1008.18 1513.77 1007.67 1513.26 1007.02L1511.69 1008.25ZM1514.62 1010.4C1515.81 1010.85 1517.12 1011.07 1518.55 1011.07V1009.07C1517.32 1009.07 1516.26 1008.88 1515.34 1008.53L1514.62 1010.4ZM1518.55 1011.07C1519.94 1011.07 1521.2 1010.87 1522.31 1010.43L1521.57 1008.57C1520.76 1008.89 1519.76 1009.07 1518.55 1009.07V1011.07ZM1522.3 1010.43C1523.4 1010 1524.32 1009.38 1524.98 1008.54L1523.41 1007.3C1523.01 1007.81 1522.42 1008.24 1521.58 1008.57L1522.3 1010.43ZM1524.98 1008.54C1525.65 1007.69 1525.99 1006.69 1525.99 1005.6H1523.99C1523.99 1006.25 1523.8 1006.81 1523.41 1007.3L1524.98 1008.54ZM1525.99 1005.6C1525.99 1004.56 1525.68 1003.64 1525.02 1002.88L1523.51 1004.19C1523.82 1004.55 1523.99 1004.99 1523.99 1005.6H1525.99ZM1525.03 1002.89C1524.42 1002.18 1523.58 1001.62 1522.56 1001.19L1521.78 1003.04C1522.61 1003.39 1523.16 1003.78 1523.5 1004.18L1525.03 1002.89ZM1522.56 1001.2C1521.59 1000.78 1520.41 1000.41 1519.05 1000.08L1518.58 1002.02C1519.87 1002.33 1520.93 1002.67 1521.78 1003.03L1522.56 1001.2ZM1519.06 1000.08L1515.1 999.086L1514.61 1001.03L1518.57 1002.02L1519.06 1000.08ZM1515.09 999.084C1512.14 998.365 1509.88 997.259 1508.26 995.812L1506.93 997.303C1508.86 999.029 1511.44 1000.25 1514.62 1001.03L1515.09 999.084ZM1508.26 995.812C1506.73 994.442 1505.94 992.594 1505.95 990.152L1503.95 990.143C1503.93 993.076 1504.91 995.501 1506.93 997.303L1508.26 995.812ZM1505.95 990.142C1505.94 988.133 1506.47 986.42 1507.52 984.961L1505.89 983.793C1504.58 985.625 1503.93 987.759 1503.95 990.153L1505.95 990.142ZM1507.51 984.965C1508.59 983.479 1510.09 982.299 1512.03 981.438L1511.22 979.61C1508.99 980.596 1507.21 981.985 1505.9 983.789L1507.51 984.965ZM1512.03 981.438C1513.97 980.58 1516.19 980.139 1518.73 980.139V978.139C1515.96 978.139 1513.45 978.622 1511.22 979.61L1512.03 981.438ZM1518.73 980.139C1521.31 980.139 1523.52 980.581 1525.38 981.433L1526.21 979.615C1524.04 978.62 1521.54 978.139 1518.73 978.139V980.139ZM1525.38 981.434C1527.26 982.291 1528.68 983.463 1529.69 984.941L1531.34 983.813C1530.1 982 1528.38 980.604 1526.21 979.614L1525.38 981.434ZM1529.69 984.941C1530.69 986.411 1531.22 988.123 1531.26 990.111L1533.26 990.078C1533.22 987.734 1532.59 985.634 1531.34 983.813L1529.69 984.941ZM1532.26 989.094H1524.89V991.094H1532.26V989.094ZM1537.92 1016H1536.92V1017H1537.92V1016ZM1537.92 979.636V978.636H1536.92V979.636H1537.92ZM1562.43 979.636H1563.43V978.636H1562.43V979.636ZM1562.43 985.975V986.975H1563.43V985.975H1562.43ZM1545.61 985.975V984.975H1544.61V985.975H1545.61ZM1545.61 994.64H1544.61V995.64H1545.61V994.64ZM1561.17 994.64H1562.17V993.64H1561.17V994.64ZM1561.17 1000.98V1001.98H1562.17V1000.98H1561.17ZM1545.61 1000.98V999.979H1544.61V1000.98H1545.61ZM1545.61 1009.66H1544.61V1010.66H1545.61V1009.66ZM1562.5 1009.66H1563.5V1008.66H1562.5V1009.66ZM1562.5 1016V1017H1563.5V1016H1562.5ZM1538.92 1016V979.636H1536.92V1016H1538.92ZM1537.92 980.636H1562.43V978.636H1537.92V980.636ZM1561.43 979.636V985.975H1563.43V979.636H1561.43ZM1562.43 984.975H1545.61V986.975H1562.43V984.975ZM1544.61 985.975V994.64H1546.61V985.975H1544.61ZM1545.61 995.64H1561.17V993.64H1545.61V995.64ZM1560.17 994.64V1000.98H1562.17V994.64H1560.17ZM1561.17 999.979H1545.61V1001.98H1561.17V999.979ZM1544.61 1000.98V1009.66H1546.61V1000.98H1544.61ZM1545.61 1010.66H1562.5V1008.66H1545.61V1010.66ZM1561.5 1009.66V1016H1563.5V1009.66H1561.5ZM1562.5 1015H1537.92V1017H1562.5V1015ZM1567.15 985.975H1566.15V986.975H1567.15V985.975ZM1567.15 979.636V978.636H1566.15V979.636H1567.15ZM1597.02 979.636H1598.02V978.636H1597.02V979.636ZM1597.02 985.975V986.975H1598.02V985.975H1597.02ZM1585.89 985.975V984.975H1584.89V985.975H1585.89ZM1585.89 1016V1017H1586.89V1016H1585.89ZM1578.29 1016H1577.29V1017H1578.29V1016ZM1578.29 985.975H1579.29V984.975H1578.29V985.975ZM1568.15 985.975V979.636H1566.15V985.975H1568.15ZM1567.15 980.636H1597.02V978.636H1567.15V980.636ZM1596.02 979.636V985.975H1598.02V979.636H1596.02ZM1597.02 984.975H1585.89V986.975H1597.02V984.975ZM1584.89 985.975V1016H1586.89V985.975H1584.89ZM1585.89 1015H1578.29V1017H1585.89V1015ZM1579.29 1016V985.975H1577.29V1016H1579.29ZM1578.29 984.975H1567.15V986.975H1578.29V984.975ZM1631.44 1007.94L1630.56 1007.46L1630.56 1007.47L1631.44 1007.94ZM1625.33 1014.31L1625.82 1015.18L1625.83 1015.18L1625.33 1014.31ZM1607.97 1014.3L1608.46 1013.43L1608.46 1013.43L1607.97 1014.3ZM1601.88 1007.92L1600.99 1008.39L1600.99 1008.39L1601.88 1007.92ZM1601.88 987.697L1602.76 988.17L1602.76 988.17L1601.88 987.697ZM1607.97 981.341L1608.46 982.211L1608.46 982.209L1607.97 981.341ZM1625.33 981.341L1624.83 982.209L1624.84 982.212L1625.33 981.341ZM1631.44 987.697L1630.56 988.17L1630.56 988.173L1631.44 987.697ZM1624.75 991.32L1623.83 991.714L1623.83 991.719L1624.75 991.32ZM1621.53 987.307L1620.98 988.142L1620.98 988.142L1621.53 987.307ZM1611.8 987.307L1612.35 988.142L1612.35 988.142L1611.8 987.307ZM1608.57 991.32L1607.65 990.92L1607.65 990.925L1608.57 991.32ZM1608.57 1004.32L1607.65 1004.71L1607.65 1004.72L1608.57 1004.32ZM1611.8 1008.33L1612.35 1007.49L1612.35 1007.49L1611.8 1008.33ZM1621.53 1008.33L1620.98 1007.49L1620.98 1007.49L1621.53 1008.33ZM1624.75 1004.32L1623.83 1003.92L1623.83 1003.92L1624.75 1004.32ZM1632.69 997.818C1632.69 1001.66 1631.97 1004.86 1630.56 1007.46L1632.32 1008.41C1633.92 1005.45 1634.69 1001.91 1634.69 997.818H1632.69ZM1630.56 1007.47C1629.15 1010.09 1627.24 1012.08 1624.84 1013.44L1625.83 1015.18C1628.58 1013.62 1630.75 1011.35 1632.32 1008.41L1630.56 1007.47ZM1624.84 1013.44C1622.43 1014.81 1619.72 1015.5 1616.67 1015.5V1017.5C1620.03 1017.5 1623.09 1016.73 1625.82 1015.18L1624.84 1013.44ZM1616.67 1015.5C1613.59 1015.5 1610.87 1014.8 1608.46 1013.43L1607.47 1015.16C1610.2 1016.73 1613.28 1017.5 1616.67 1017.5V1015.5ZM1608.46 1013.43C1606.07 1012.06 1604.17 1010.08 1602.76 1007.45L1600.99 1008.39C1602.57 1011.33 1604.73 1013.6 1607.47 1015.16L1608.46 1013.43ZM1602.76 1007.45C1601.36 1004.84 1600.64 1001.65 1600.64 997.818H1598.64C1598.64 1001.9 1599.41 1005.43 1600.99 1008.39L1602.76 1007.45ZM1600.64 997.818C1600.64 993.976 1601.36 990.774 1602.76 988.17L1600.99 987.225C1599.41 990.185 1598.64 993.729 1598.64 997.818H1600.64ZM1602.76 988.17C1604.17 985.543 1606.07 983.567 1608.46 982.211L1607.47 980.471C1604.73 982.027 1602.57 984.289 1600.99 987.225L1602.76 988.17ZM1608.46 982.209C1610.87 980.836 1613.59 980.139 1616.67 980.139V978.139C1613.28 978.139 1610.2 978.911 1607.47 980.473L1608.46 982.209ZM1616.67 980.139C1619.72 980.139 1622.43 980.835 1624.83 982.209L1625.83 980.473C1623.09 978.911 1620.03 978.139 1616.67 978.139V980.139ZM1624.84 982.212C1627.24 983.568 1629.15 985.544 1630.56 988.17L1632.32 987.225C1630.75 984.288 1628.58 982.025 1625.82 980.47L1624.84 982.212ZM1630.56 988.173C1631.97 990.776 1632.69 993.977 1632.69 997.818H1634.69C1634.69 993.728 1633.92 990.182 1632.32 987.222L1630.56 988.173ZM1626.9 997.818C1626.9 995.156 1626.5 992.844 1625.66 990.92L1623.83 991.719C1624.53 993.322 1624.9 995.343 1624.9 997.818H1626.9ZM1625.66 990.925C1624.84 989.01 1623.65 987.507 1622.08 986.471L1620.98 988.142C1622.18 988.93 1623.13 990.101 1623.83 991.714L1625.66 990.925ZM1622.08 986.471C1620.51 985.44 1618.7 984.94 1616.67 984.94V986.94C1618.35 986.94 1619.78 987.351 1620.98 988.142L1622.08 986.471ZM1616.67 984.94C1614.64 984.94 1612.82 985.44 1611.25 986.471L1612.35 988.142C1613.55 987.351 1614.98 986.94 1616.67 986.94V984.94ZM1611.25 986.471C1609.68 987.506 1608.49 989.008 1607.65 990.92L1609.49 991.719C1610.19 990.104 1611.15 988.931 1612.35 988.142L1611.25 986.471ZM1607.65 990.925C1606.82 992.848 1606.43 995.157 1606.43 997.818H1608.43C1608.43 995.342 1608.8 993.319 1609.49 991.714L1607.65 990.925ZM1606.43 997.818C1606.43 1000.48 1606.82 1002.79 1607.65 1004.71L1609.49 1003.92C1608.8 1002.32 1608.43 1000.29 1608.43 997.818H1606.43ZM1607.65 1004.72C1608.49 1006.63 1609.68 1008.13 1611.25 1009.16L1612.35 1007.49C1611.15 1006.71 1610.19 1005.53 1609.49 1003.92L1607.65 1004.72ZM1611.25 1009.16C1612.82 1010.2 1614.64 1010.7 1616.67 1010.7V1008.7C1614.98 1008.7 1613.55 1008.29 1612.35 1007.49L1611.25 1009.16ZM1616.67 1010.7C1618.7 1010.7 1620.51 1010.2 1622.08 1009.16L1620.98 1007.49C1619.78 1008.29 1618.35 1008.7 1616.67 1008.7V1010.7ZM1622.08 1009.16C1623.65 1008.13 1624.84 1006.63 1625.66 1004.71L1623.83 1003.92C1623.13 1005.54 1622.18 1006.71 1620.98 1007.49L1622.08 1009.16ZM1625.66 1004.72C1626.5 1002.79 1626.9 1000.48 1626.9 997.818H1624.9C1624.9 1000.29 1624.53 1002.31 1623.83 1003.92L1625.66 1004.72ZM1639.39 1016H1638.39V1017H1639.39V1016ZM1639.39 979.636V978.636H1638.39V979.636H1639.39ZM1660.77 981.11L1660.32 982.002L1660.32 982.006L1660.77 981.11ZM1665.22 985.247L1664.35 985.742L1664.36 985.749L1665.22 985.247ZM1665.21 997.747L1666.06 998.263L1666.06 998.261L1665.21 997.747ZM1660.68 1001.72L1660.25 1000.82L1660.25 1000.82L1660.68 1001.72ZM1643.93 1003.11H1642.93V1004.11H1643.93V1003.11ZM1643.93 996.93V995.93H1642.93V996.93H1643.93ZM1655.96 996.327L1656.34 997.25L1656.34 997.25L1655.96 996.327ZM1658.12 994.516L1657.26 993.999L1657.26 994.009L1658.12 994.516ZM1658.12 988.461L1657.25 988.957L1657.26 988.966L1658.12 988.461ZM1655.94 986.579L1655.53 987.49L1655.53 987.493L1655.54 987.496L1655.94 986.579ZM1647.08 985.922V984.922H1646.08V985.922H1647.08ZM1647.08 1016V1017H1648.08V1016H1647.08ZM1659.03 999.452L1659.9 998.972L1659.62 998.452H1659.03V999.452ZM1668.06 1016V1017H1669.75L1668.94 1015.52L1668.06 1016ZM1659.58 1016L1658.7 1016.47L1658.98 1017H1659.58V1016ZM1650.73 999.452V998.452H1649.07L1649.85 999.923L1650.73 999.452ZM1640.39 1016V979.636H1638.39V1016H1640.39ZM1639.39 980.636H1653.74V978.636H1639.39V980.636ZM1653.74 980.636C1656.37 980.636 1658.55 981.107 1660.32 982.002L1661.22 980.218C1659.11 979.148 1656.6 978.636 1653.74 978.636V980.636ZM1660.32 982.006C1662.11 982.893 1663.44 984.138 1664.35 985.742L1666.09 984.752C1664.97 982.782 1663.33 981.268 1661.21 980.215L1660.32 982.006ZM1664.36 985.749C1665.29 987.348 1665.77 989.258 1665.77 991.515H1667.77C1667.77 988.966 1667.22 986.698 1666.09 984.745L1664.36 985.749ZM1665.77 991.515C1665.77 993.784 1665.28 995.676 1664.35 997.234L1666.06 998.261C1667.21 996.338 1667.77 994.076 1667.77 991.515H1665.77ZM1664.35 997.231C1663.42 998.775 1662.07 999.972 1660.25 1000.82L1661.1 1002.63C1663.24 1001.63 1664.91 1000.18 1666.06 998.263L1664.35 997.231ZM1660.25 1000.82C1658.45 1001.66 1656.23 1002.11 1653.54 1002.11V1004.11C1656.44 1004.11 1658.97 1003.63 1661.1 1002.63L1660.25 1000.82ZM1653.54 1002.11H1643.93V1004.11H1653.54V1002.11ZM1644.93 1003.11V996.93H1642.93V1003.11H1644.93ZM1643.93 997.93H1652.3V995.93H1643.93V997.93ZM1652.3 997.93C1653.85 997.93 1655.21 997.719 1656.34 997.25L1655.57 995.403C1654.76 995.739 1653.68 995.93 1652.3 995.93V997.93ZM1656.34 997.25C1657.48 996.776 1658.39 996.038 1658.98 995.023L1657.26 994.009C1656.91 994.603 1656.37 995.073 1655.57 995.403L1656.34 997.25ZM1658.98 995.032C1659.58 994.034 1659.85 992.844 1659.85 991.515H1657.85C1657.85 992.577 1657.63 993.387 1657.26 993.999L1658.98 995.032ZM1659.85 991.515C1659.85 990.175 1659.58 988.972 1658.98 987.956L1657.26 988.966C1657.63 989.607 1657.85 990.44 1657.85 991.515H1659.85ZM1658.99 987.965C1658.4 986.926 1657.49 986.162 1656.34 985.661L1655.54 987.496C1656.35 987.847 1656.9 988.339 1657.25 988.957L1658.99 987.965ZM1656.35 985.667C1655.21 985.153 1653.83 984.922 1652.26 984.922V986.922C1653.65 986.922 1654.72 987.129 1655.53 987.49L1656.35 985.667ZM1652.26 984.922H1647.08V986.922H1652.26V984.922ZM1646.08 985.922V1016H1648.08V985.922H1646.08ZM1647.08 1015H1639.39V1017H1647.08V1015ZM1658.15 999.931L1667.19 1016.48L1668.94 1015.52L1659.9 998.972L1658.15 999.931ZM1668.06 1015H1659.58V1017H1668.06V1015ZM1660.46 1015.53L1651.62 998.98L1649.85 999.923L1658.7 1016.47L1660.46 1015.53ZM1650.73 1000.45H1659.03V998.452H1650.73V1000.45ZM1715.86 992.367V993.367H1716.98L1716.85 992.25L1715.86 992.367ZM1708.08 992.367L1707.09 992.507L1707.21 993.367H1708.08V992.367ZM1707.21 989.686L1706.34 990.17L1706.34 990.175L1707.21 989.686ZM1705.52 987.662L1704.89 988.439L1704.89 988.439L1705.52 987.662ZM1703.15 986.384L1702.83 987.332L1702.83 987.333L1703.15 986.384ZM1695.33 987.342L1695.88 988.177L1695.89 988.173L1695.33 987.342ZM1692.08 991.391L1693 991.79L1693 991.788L1692.08 991.391ZM1692.08 1004.35L1691.17 1004.75L1691.17 1004.76L1692.08 1004.35ZM1695.35 1008.35L1694.81 1009.19L1694.81 1009.19L1695.35 1008.35ZM1703.06 1009.29L1702.76 1008.33L1702.76 1008.33L1703.06 1009.29ZM1705.42 1008.1L1706.02 1008.9L1706.03 1008.89L1705.42 1008.1ZM1707.12 1006.16L1706.27 1005.64L1706.26 1005.65L1707.12 1006.16ZM1708.08 1003.57L1708.09 1002.57L1707.25 1002.57L1707.1 1003.39L1708.08 1003.57ZM1715.86 1003.61L1716.85 1003.73L1716.99 1002.61L1715.86 1002.61L1715.86 1003.61ZM1714.35 1008.44L1713.46 1007.98L1713.46 1007.98L1714.35 1008.44ZM1711.14 1012.57L1711.81 1013.32L1711.81 1013.32L1711.14 1012.57ZM1706.34 1015.45L1706.7 1016.38L1706.7 1016.38L1706.34 1015.45ZM1691.37 1014.3L1690.87 1015.16L1690.88 1015.16L1691.37 1014.3ZM1685.34 1007.92L1684.45 1008.39L1684.45 1008.39L1685.34 1007.92ZM1685.37 987.697L1686.25 988.17L1686.25 988.17L1685.37 987.697ZM1691.44 981.341L1691.94 982.21L1691.94 982.208L1691.44 981.341ZM1705.93 980.027L1705.62 980.977L1705.62 980.978L1705.93 980.027ZM1710.74 982.619L1710.11 983.395L1710.12 983.398L1710.74 982.619ZM1714.15 986.756L1713.27 987.229L1713.28 987.234L1714.15 986.756ZM1715.86 991.367H1708.08V993.367H1715.86V991.367ZM1709.07 992.227C1708.91 991.115 1708.59 990.1 1708.08 989.197L1706.34 990.175C1706.71 990.835 1706.96 991.607 1707.09 992.507L1709.07 992.227ZM1708.09 989.203C1707.59 988.3 1706.94 987.525 1706.15 986.885L1704.89 988.439C1705.48 988.912 1705.96 989.486 1706.34 990.17L1708.09 989.203ZM1706.15 986.885C1705.37 986.247 1704.46 985.765 1703.46 985.434L1702.83 987.333C1703.63 987.594 1704.31 987.964 1704.89 988.439L1706.15 986.885ZM1703.46 985.435C1702.46 985.101 1701.39 984.94 1700.25 984.94V986.94C1701.2 986.94 1702.05 987.074 1702.83 987.332L1703.46 985.435ZM1700.25 984.94C1698.2 984.94 1696.36 985.453 1694.78 986.511L1695.89 988.173C1697.1 987.361 1698.54 986.94 1700.25 986.94V984.94ZM1694.78 986.508C1693.2 987.554 1692 989.068 1691.17 990.993L1693 991.788C1693.71 990.162 1694.67 988.977 1695.88 988.177L1694.78 986.508ZM1691.17 990.991C1690.33 992.913 1689.93 995.2 1689.93 997.818H1691.93C1691.93 995.394 1692.3 993.395 1693 991.79L1691.17 990.991ZM1689.93 997.818C1689.93 1000.5 1690.33 1002.83 1691.17 1004.75L1693 1003.95C1692.3 1002.35 1691.93 1000.32 1691.93 997.818H1689.93ZM1691.17 1004.76C1692.02 1006.67 1693.22 1008.17 1694.81 1009.19L1695.89 1007.51C1694.68 1006.73 1693.71 1005.56 1693 1003.95L1691.17 1004.76ZM1694.81 1009.19C1696.38 1010.2 1698.19 1010.7 1700.2 1010.7V1008.7C1698.53 1008.7 1697.11 1008.29 1695.89 1007.51L1694.81 1009.19ZM1700.2 1010.7C1701.32 1010.7 1702.37 1010.55 1703.35 1010.24L1702.76 1008.33C1701.99 1008.57 1701.14 1008.7 1700.2 1008.7V1010.7ZM1703.35 1010.24C1704.34 1009.94 1705.24 1009.49 1706.02 1008.9L1704.81 1007.3C1704.23 1007.75 1703.55 1008.09 1702.76 1008.33L1703.35 1010.24ZM1706.03 1008.89C1706.82 1008.28 1707.47 1007.54 1707.98 1006.67L1706.26 1005.65C1705.88 1006.3 1705.39 1006.85 1704.8 1007.31L1706.03 1008.89ZM1707.98 1006.68C1708.51 1005.81 1708.87 1004.83 1709.06 1003.75L1707.1 1003.39C1706.94 1004.25 1706.66 1005 1706.27 1005.64L1707.98 1006.68ZM1708.08 1004.57L1715.85 1004.61L1715.86 1002.61L1708.09 1002.57L1708.08 1004.57ZM1714.87 1003.49C1714.68 1005.03 1714.21 1006.53 1713.46 1007.98L1715.24 1008.9C1716.09 1007.24 1716.63 1005.52 1716.85 1003.73L1714.87 1003.49ZM1713.46 1007.98C1712.73 1009.4 1711.73 1010.69 1710.46 1011.83L1711.81 1013.32C1713.24 1012.02 1714.39 1010.55 1715.24 1008.89L1713.46 1007.98ZM1710.47 1011.83C1709.23 1012.95 1707.74 1013.84 1705.98 1014.52L1706.7 1016.38C1708.66 1015.63 1710.37 1014.61 1711.81 1013.32L1710.47 1011.83ZM1705.99 1014.51C1704.27 1015.16 1702.31 1015.5 1700.07 1015.5V1017.5C1702.5 1017.5 1704.72 1017.13 1706.7 1016.38L1705.99 1014.51ZM1700.07 1015.5C1696.99 1015.5 1694.26 1014.8 1691.87 1013.43L1690.88 1015.16C1693.6 1016.73 1696.67 1017.5 1700.07 1017.5V1015.5ZM1691.87 1013.43C1689.5 1012.06 1687.62 1010.08 1686.22 1007.45L1684.45 1008.39C1686.01 1011.33 1688.15 1013.59 1690.87 1015.16L1691.87 1013.43ZM1686.22 1007.45C1684.85 1004.85 1684.13 1001.65 1684.13 997.818H1682.13C1682.13 1001.89 1682.89 1005.43 1684.45 1008.39L1686.22 1007.45ZM1684.13 997.818C1684.13 993.976 1684.86 990.774 1686.25 988.17L1684.49 987.225C1682.9 990.185 1682.13 993.729 1682.13 997.818H1684.13ZM1686.25 988.17C1687.66 985.542 1689.56 983.566 1691.94 982.21L1690.95 980.472C1688.22 982.028 1686.06 984.29 1684.49 987.225L1686.25 988.17ZM1691.94 982.208C1694.33 980.835 1697.04 980.139 1700.07 980.139V978.139C1696.72 978.139 1693.67 978.912 1690.95 980.474L1691.94 982.208ZM1700.07 980.139C1702.09 980.139 1703.93 980.422 1705.62 980.977L1706.25 979.077C1704.33 978.449 1702.27 978.139 1700.07 978.139V980.139ZM1705.62 980.978C1707.32 981.533 1708.82 982.341 1710.11 983.395L1711.38 981.844C1709.88 980.625 1708.16 979.704 1706.24 979.076L1705.62 980.978ZM1710.12 983.398C1711.41 984.436 1712.46 985.71 1713.27 987.229L1715.04 986.284C1714.1 984.536 1712.88 983.052 1711.37 981.84L1710.12 983.398ZM1713.28 987.234C1714.09 988.741 1714.63 990.486 1714.87 992.484L1716.85 992.25C1716.59 990.034 1715.99 988.039 1715.03 986.279L1713.28 987.234Z" fill="black" mask="url(#path-43-outside-1_2355_1434)"/>
</svg>
